mtllib ur3e_base_link_collisions_base_mesh.mtl
v -0.025885894894599915 0.058612074702978134 -2.8089124270991306e-07
v 0.03374309092760086 0.054496318101882935 -4.0818821389621007e-07
v -0.043071355670690536 0.04748380184173584 -2.9334495366128976e-07
v -0.05918978527188301 0.024529607966542244 -1.8214246111369903e-08
v -0.043071355670690536 0.04748380184173584 -2.9334495366128976e-07
v -0.06396914273500443 -0.0036200708709657192 -2.670823846528947e-07
v 0.044823627918958664 -0.04583248496055603 -5.080906930743367e-07
v -0.028136739507317543 -0.05756078287959099 -2.716351445997134e-07
v -0.06396914273500443 -0.0036200708709657192 -2.670823846528947e-07
v -0.06396914273500443 -0.0036200708709657192 -2.670823846528947e-07
v -0.043071355670690536 0.04748380184173584 -2.9334495366128976e-07
v 0.044823627918958664 -0.04583248496055603 -5.080906930743367e-07
v 0.044823627918958664 -0.04583248496055603 -5.080906930743367e-07
v 0.03374309092760086 0.054496318101882935 -4.0818821389621007e-07
v 0.06405747681856155 -0.0025327554903924465 -4.999051270715427e-07
v 0.044823627918958664 -0.04583248496055603 -5.080906930743367e-07
v -0.043071355670690536 0.04748380184173584 -2.9334495366128976e-07
v 0.03374309092760086 0.054496318101882935 -4.0818821389621007e-07
v -0.041153158992528915 -0.017660366371273994 0.09494921565055847
v -0.022343717515468597 -0.038809943944215775 0.09495130926370621
v -0.03282151371240616 0.030476486310362816 0.09495025128126144
v -0.022343717515468597 -0.038809943944215775 0.09495130926370621
v -0.041153158992528915 -0.017660366371273994 0.09494921565055847
v -0.035327620804309845 -0.027521463111042976 0.09494921565055847
v 0.0014732461422681808 0.06408634036779404 -2.589940208963526e-07
v 0.03374309092760086 0.054496318101882935 -4.0818821389621007e-07
v -0.012961228378117085 0.06277856975793839 -2.7017506454285467e-07
v -0.012961228378117085 0.06277856975793839 -2.7017506454285467e-07
v 0.03374309092760086 0.054496318101882935 -4.0818821389621007e-07
v -0.025885894894599915 0.058612074702978134 -2.8089124270991306e-07
v -0.03441503271460533 0.053958162665367126 -8.855241873106934e-09
v -0.025885894894599915 0.058612074702978134 -2.8089124270991306e-07
v -0.043071355670690536 0.04748380184173584 -2.9334495366128976e-07
v 0.02148708701133728 0.06035970523953438 -2.5591765506760566e-07
v 0.03374309092760086 0.054496318101882935 -4.0818821389621007e-07
v 0.0014732461422681808 0.06408634036779404 -2.589940208963526e-07
v -0.051769010722637177 0.037756018340587616 -1.5218104110203967e-08
v -0.049163538962602615 0.04092855378985405 0.017824042588472366
v -0.043071355670690536 0.04748380184173584 -2.9334495366128976e-07
v -0.06261724978685379 -0.01322720292955637 -2.098146367757181e-08
v -0.06302111595869064 -0.010887324810028076 0.017581619322299957
v -0.06396914273500443 -0.0036200708709657192 -2.670823846528947e-07
v -0.041153158992528915 -0.017660366371273994 0.09494921565055847
v -0.03967655077576637 -0.02134568616747856 0.09419209510087967
v -0.035327620804309845 -0.027521463111042976 0.09494921565055847
v 0.05778136104345322 -0.02762952260673046 -8.447973698366695e-08
v 0.044823627918958664 -0.04583248496055603 -5.080906930743367e-07
v 0.06405747681856155 -0.0025327554903924465 -4.999051270715427e-07
v 0.03804204612970352 -0.02364036627113819 0.09495027363300323
v 0.04215817153453827 0.015074489638209343 0.0949496477842331
v 0.017183294519782066 -0.0413554348051548 0.09495166689157486
v 0.03822433948516846 0.023171866312623024 0.09494877606630325
v 0.033130060881376266 0.03008788637816906 0.0949491634964943
v 0.04215817153453827 0.015074489638209343 0.0949496477842331
v 0.04094338044524193 0.0187691617757082 0.09419505298137665
v 0.03822433948516846 0.023171866312623024 0.09494877606630325
v 0.04215817153453827 0.015074489638209343 0.0949496477842331
v -0.03649389371275902 0.05252370610833168 0.017562873661518097
v -0.03441503271460533 0.053958162665367126 -8.855241873106934e-09
v -0.043071355670690536 0.04748380184173584 -2.9334495366128976e-07
v -0.06194579228758812 0.016132686287164688 -1.94793106089719e-08
v -0.05918978527188301 0.024529607966542244 -1.8214246111369903e-08
v -0.06396914273500443 -0.0036200708709657192 -2.670823846528947e-07
v -0.06396914273500443 -0.0036200708709657192 -2.670823846528947e-07
v -0.06369064748287201 0.006816355977207422 -2.045508828985021e-08
v -0.06194579228758812 0.016132686287164688 -1.94793106089719e-08
v -0.060180921107530594 0.019771328195929527 0.021769292652606964
v -0.05636369436979294 0.029103657230734825 0.021238647401332855
v -0.0571066290140152 0.028841469436883926 0.01779654249548912
v -0.04334603622555733 0.012281161732971668 0.09419810771942139
v -0.041336093097925186 0.01791699416935444 0.09420298039913177
v -0.060180921107530594 0.019771328195929527 0.021769292652606964
v -0.05721380561590195 0.025168761610984802 0.02429567277431488
v -0.05636369436979294 0.029103657230734825 0.021238647401332855
v -0.060180921107530594 0.019771328195929527 0.021769292652606964
v -0.060180921107530594 0.019771328195929527 0.021769292652606964
v -0.041336093097925186 0.01791699416935444 0.09420298039913177
v -0.05721380561590195 0.025168761610984802 0.02429567277431488
v -0.05721380561590195 0.025168761610984802 0.02429567277431488
v -0.041336093097925186 0.01791699416935444 0.09420298039913177
v -0.05636369436979294 0.029103657230734825 0.021238647401332855
v -0.045057512819767 0.0005610823282040656 0.09419681131839752
v -0.0629364624619484 0.0062591880559921265 0.022124042734503746
v -0.06311193853616714 -0.003392222337424755 0.02231721580028534
v -0.06313914805650711 0.010407325811684132 0.017640570178627968
v -0.06194579228758812 0.016132686287164688 -1.94793106089719e-08
v -0.06369064748287201 0.006816355977207422 -2.045508828985021e-08
v 0.024769946932792664 0.037296146154403687 0.0949496403336525
v -0.03282151371240616 0.030476486310362816 0.09495025128126144
v 0.017183294519782066 -0.0413554348051548 0.09495166689157486
v 0.024769946932792664 0.037296146154403687 0.0949496403336525
v 0.017183294519782066 -0.0413554348051548 0.09495166689157486
v 0.04215817153453827 0.015074489638209343 0.0949496477842331
v 0.024769946932792664 0.037296146154403687 0.0949496403336525
v 0.04215817153453827 0.015074489638209343 0.0949496477842331
v 0.033130060881376266 0.03008788637816906 0.0949491634964943
v -0.0003939640009775758 0.04505229741334915 0.09420045465230942
v -0.0021386046428233385 0.0632147341966629 0.022104179486632347
v -0.006131368689239025 0.04464394226670265 0.0942002385854721
v -0.061994247138500214 -0.012631750665605068 0.02199241891503334
v -0.06311193853616714 -0.003392222337424755 0.02231721580028534
v -0.06302111595869064 -0.010887324810028076 0.017581619322299957
v -0.01203982811421156 -0.06285645812749863 -6.670627605842583e-09
v -0.028136739507317543 -0.05756078287959099 -2.716351445997134e-07
v -0.00401843897998333 -0.06392579525709152 5.738917341346905e-09
v -0.01203982811421156 -0.06285645812749863 -6.670627605842583e-09
v -0.019621821120381355 -0.0609305277466774 -9.056968508502905e-09
v -0.028136739507317543 -0.05756078287959099 -2.716351445997134e-07
v -0.03193189203739166 -0.05544514209032059 0.017741188406944275
v -0.036898430436849594 -0.05230727419257164 -1.430946472424921e-08
v -0.028136739507317543 -0.05756078287959099 -2.716351445997134e-07
v 0.04487903416156769 -0.004024691414088011 0.09419610351324081
v 0.06309974193572998 -0.0038500656373798847 0.022236868739128113
v 0.045026373118162155 0.001816152362152934 0.0942002609372139
v 0.03308999165892601 -0.030051443725824356 0.09494876861572266
v 0.029627924785017967 -0.03393946588039398 0.09419813007116318
v 0.03380792587995529 -0.029769277200102806 0.0941968709230423
v 0.019971853122115135 -0.04037819802761078 0.09418705105781555
v 0.017183294519782066 -0.0413554348051548 0.09495166689157486
v 0.027485698461532593 -0.057122375816106796 0.021459002047777176
v 0.019971853122115135 -0.04037819802761078 0.09418705105781555
v 0.024868860840797424 -0.03756631165742874 0.09420300275087357
v 0.017183294519782066 -0.0413554348051548 0.09495166689157486
v 0.041948962956666946 -0.015437600202858448 0.09494877606630325
v 0.03804204612970352 -0.02364036627113819 0.09495027363300323
v 0.0415068194270134 -0.017839858308434486 0.09418430924415588
v 0.0415068194270134 -0.017839858308434486 0.09418430924415588
v 0.05737660825252533 -0.026989009231328964 0.02138752117753029
v 0.060487743467092514 -0.018146630376577377 0.022555077448487282
v 0.0415068194270134 -0.017839858308434486 0.09418430924415588
v 0.04401037096977234 -0.009641044773161411 0.09420046955347061
v 0.041948962956666946 -0.015437600202858448 0.09494877606630325
v 0.0415068194270134 -0.017839858308434486 0.09418430924415588
v 0.060487743467092514 -0.018146630376577377 0.022555077448487282
v 0.04401037096977234 -0.009641044773161411 0.09420046955347061
v 0.05264633148908615 -0.03531318157911301 0.021448688581585884
v 0.0569940060377121 -0.02901192009449005 0.01760108768939972
v 0.05737660825252533 -0.026989009231328964 0.02138752117753029
v 0.04428683593869209 -0.00664402125403285 0.09494924545288086
v 0.04215817153453827 0.015074489638209343 0.0949496477842331
v 0.03804204612970352 -0.02364036627113819 0.09495027363300323
v 0.04428683593869209 -0.00664402125403285 0.09494924545288086
v 0.04454674944281578 0.004297437146306038 0.09494917839765549
v 0.04215817153453827 0.015074489638209343 0.0949496477842331
v 0.04428683593869209 -0.00664402125403285 0.09494924545288086
v 0.03804204612970352 -0.02364036627113819 0.09495027363300323
v 0.041948962956666946 -0.015437600202858448 0.09494877606630325
v 0.04428683593869209 -0.00664402125403285 0.09494924545288086
v 0.041948962956666946 -0.015437600202858448 0.09494877606630325
v 0.04401037096977234 -0.009641044773161411 0.09420046955347061
v 0.045026373118162155 0.001816152362152934 0.0942002609372139
v 0.04454674944281578 0.004297437146306038 0.09494917839765549
v 0.04428683593869209 -0.00664402125403285 0.09494924545288086
v 0.04428683593869209 -0.00664402125403285 0.09494924545288086
v 0.04487903416156769 -0.004024691414088011 0.09419610351324081
v 0.045026373118162155 0.001816152362152934 0.0942002609372139
v 0.04302753508090973 0.01335406769067049 0.09419813007116318
v 0.04094338044524193 0.0187691617757082 0.09419505298137665
v 0.04215817153453827 0.015074489638209343 0.0949496477842331
v 0.04439201578497887 0.0076649365946650505 0.09418942034244537
v 0.04454674944281578 0.004297437146306038 0.09494917839765549
v 0.045026373118162155 0.001816152362152934 0.0942002609372139
v 0.04439201578497887 0.0076649365946650505 0.09418942034244537
v 0.04215817153453827 0.015074489638209343 0.0949496477842331
v 0.04454674944281578 0.004297437146306038 0.09494917839765549
v 0.04439201578497887 0.0076649365946650505 0.09418942034244537
v 0.04302753508090973 0.01335406769067049 0.09419813007116318
v 0.04215817153453827 0.015074489638209343 0.0949496477842331
v 0.033130060881376266 0.03008788637816906 0.0949491634964943
v 0.03822433948516846 0.023171866312623024 0.09494877606630325
v 0.03494229167699814 0.028447652235627174 0.0942043587565422
v -0.030539661645889282 0.056212153285741806 0.017811700701713562
v -0.025885894894599915 0.058612074702978134 -2.8089124270991306e-07
v -0.03441503271460533 0.053958162665367126 -8.855241873106934e-09
v -0.030539661645889282 0.056212153285741806 0.017811700701713562
v -0.03441503271460533 0.053958162665367126 -8.855241873106934e-09
v -0.03649389371275902 0.05252370610833168 0.017562873661518097
v 0.029958782717585564 0.056560587137937546 0.017611341550946236
v 0.03808983787894249 0.05142083764076233 0.017626767978072166
v 0.03374309092760086 0.054496318101882935 -4.0818821389621007e-07
v 0.029958782717585564 0.056560587137937546 0.017611341550946236
v 0.03374309092760086 0.054496318101882935 -4.0818821389621007e-07
v 0.02148708701133728 0.06035970523953438 -2.5591765506760566e-07
v 0.03374309092760086 0.054496318101882935 -4.0818821389621007e-07
v 0.060458991676568985 0.021357813850045204 -2.3574651208946307e-07
v 0.06405747681856155 -0.0025327554903924465 -4.999051270715427e-07
v 0.03374309092760086 0.054496318101882935 -4.0818821389621007e-07
v 0.03808983787894249 0.05142083764076233 0.017626767978072166
v 0.04486154019832611 0.04577793926000595 7.457423834011934e-08
v -0.0373312272131443 0.025445230305194855 0.0941842794418335
v -0.05636369436979294 0.029103657230734825 0.021238647401332855
v -0.041336093097925186 0.01791699416935444 0.09420298039913177
v -0.0373312272131443 0.025445230305194855 0.0941842794418335
v -0.05276188999414444 0.03507406637072563 0.021436657756567
v -0.05636369436979294 0.029103657230734825 0.021238647401332855
v -0.060180921107530594 0.019771328195929527 0.021769292652606964
v -0.0571066290140152 0.028841469436883926 0.01779654249548912
v -0.06085088849067688 0.019714070484042168 0.017895428463816643
v -0.06085088849067688 0.019714070484042168 0.017895428463816643
v -0.0571066290140152 0.028841469436883926 0.01779654249548912
v -0.05918978527188301 0.024529607966542244 -1.8214246111369903e-08
v -0.06085088849067688 0.019714070484042168 0.017895428463816643
v -0.05918978527188301 0.024529607966542244 -1.8214246111369903e-08
v -0.06194579228758812 0.016132686287164688 -1.94793106089719e-08
v -0.06085088849067688 0.019714070484042168 0.017895428463816643
v -0.06194579228758812 0.016132686287164688 -1.94793106089719e-08
v -0.06313914805650711 0.010407325811684132 0.017640570178627968
v -0.055824246257543564 0.031297724694013596 -1.6821768866748243e-08
v -0.05918978527188301 0.024529607966542244 -1.8214246111369903e-08
v -0.0571066290140152 0.028841469436883926 0.01779654249548912
v -0.055824246257543564 0.031297724694013596 -1.6821768866748243e-08
v -0.043071355670690536 0.04748380184173584 -2.9334495366128976e-07
v -0.05918978527188301 0.024529607966542244 -1.8214246111369903e-08
v -0.055824246257543564 0.031297724694013596 -1.6821768866748243e-08
v -0.051769010722637177 0.037756018340587616 -1.5218104110203967e-08
v -0.043071355670690536 0.04748380184173584 -2.9334495366128976e-07
v -0.05328645557165146 0.03536593168973923 0.017581624910235405
v -0.05276188999414444 0.03507406637072563 0.021436657756567
v -0.049163538962602615 0.04092855378985405 0.017824042588472366
v -0.051769010722637177 0.037756018340587616 -1.5218104110203967e-08
v -0.05328645557165146 0.03536593168973923 0.017581624910235405
v -0.049163538962602615 0.04092855378985405 0.017824042588472366
v -0.05636369436979294 0.029103657230734825 0.021238647401332855
v -0.05276188999414444 0.03507406637072563 0.021436657756567
v -0.05328645557165146 0.03536593168973923 0.017581624910235405
v -0.05328645557165146 0.03536593168973923 0.017581624910235405
v -0.0571066290140152 0.028841469436883926 0.01779654249548912
v -0.05636369436979294 0.029103657230734825 0.021238647401332855
v -0.055824246257543564 0.031297724694013596 -1.6821768866748243e-08
v -0.05328645557165146 0.03536593168973923 0.017581624910235405
v -0.051769010722637177 0.037756018340587616 -1.5218104110203967e-08
v -0.05328645557165146 0.03536593168973923 0.017581624910235405
v -0.055824246257543564 0.031297724694013596 -1.6821768866748243e-08
v -0.0571066290140152 0.028841469436883926 0.01779654249548912
v -0.044572629034519196 0.0065146139822900295 0.09419601410627365
v -0.0629364624619484 0.0062591880559921265 0.022124042734503746
v -0.045057512819767 0.0005610823282040656 0.09419681131839752
v -0.041336093097925186 0.01791699416935444 0.09420298039913177
v -0.04334603622555733 0.012281161732971668 0.09419810771942139
v -0.042004480957984924 0.015465252101421356 0.09494885802268982
v -0.04474656283855438 -0.005149136763066053 0.09419424831867218
v -0.06311193853616714 -0.003392222337424755 0.02231721580028534
v -0.061994247138500214 -0.012631750665605068 0.02199241891503334
v -0.06385789811611176 -0.003927641548216343 0.01769976317882538
v -0.06396914273500443 -0.0036200708709657192 -2.670823846528947e-07
v -0.06302111595869064 -0.010887324810028076 0.017581619322299957
v -0.06302111595869064 -0.010887324810028076 0.017581619322299957
v -0.06311193853616714 -0.003392222337424755 0.02231721580028534
v -0.06385789811611176 -0.003927641548216343 0.01769976317882538
v -0.061785660684108734 0.013174323365092278 0.02223106101155281
v -0.06313914805650711 0.010407325811684132 0.017640570178627968
v -0.0629364624619484 0.0062591880559921265 0.022124042734503746
v -0.0629364624619484 0.0062591880559921265 0.022124042734503746
v -0.044572629034519196 0.0065146139822900295 0.09419601410627365
v -0.061785660684108734 0.013174323365092278 0.02223106101155281
v -0.060180921107530594 0.019771328195929527 0.021769292652606964
v -0.06085088849067688 0.019714070484042168 0.017895428463816643
v -0.061785660684108734 0.013174323365092278 0.02223106101155281
v -0.061785660684108734 0.013174323365092278 0.02223106101155281
v -0.06085088849067688 0.019714070484042168 0.017895428463816643
v -0.06313914805650711 0.010407325811684132 0.017640570178627968
v -0.061785660684108734 0.013174323365092278 0.02223106101155281
v -0.04334603622555733 0.012281161732971668 0.09419810771942139
v -0.060180921107530594 0.019771328195929527 0.021769292652606964
v -0.061785660684108734 0.013174323365092278 0.02223106101155281
v -0.044572629034519196 0.0065146139822900295 0.09419601410627365
v -0.04334603622555733 0.012281161732971668 0.09419810771942139
v 0.030991891399025917 0.032694123685359955 0.09418941289186478
v 0.024769946932792664 0.037296146154403687 0.0949496403336525
v 0.033130060881376266 0.03008788637816906 0.0949491634964943
v 0.033130060881376266 0.03008788637816906 0.0949491634964943
v 0.03494229167699814 0.028447652235627174 0.0942043587565422
v 0.030991891399025917 0.032694123685359955 0.09418941289186478
v 0.02149992063641548 0.039584577083587646 0.0941968634724617
v 0.014593762345612049 0.0423378050327301 0.09494923800230026
v 0.024769946932792664 0.037296146154403687 0.0949496403336525
v 0.03808983787894249 0.05142083764076233 0.017626767978072166
v 0.038247499614953995 0.05057591572403908 0.021360639482736588
v 0.04350991174578667 0.04605316370725632 0.02143668942153454
v 0.038247499614953995 0.05057591572403908 0.021360639482736588
v 0.030991891399025917 0.032694123685359955 0.09418941289186478
v 0.04350991174578667 0.04605316370725632 0.02143668942153454
v -0.011885171756148338 0.04345262423157692 0.09418995678424835
v -0.02094983123242855 0.05973358079791069 0.021877218037843704
v -0.017343848943710327 0.04157482460141182 0.09418702870607376
v -0.012102240696549416 0.06207208335399628 0.02219463139772415
v -0.006131368689239025 0.04464394226670265 0.0942002385854721
v -0.0021386046428233385 0.0632147341966629 0.022104179486632347
v -0.011885171756148338 0.04345262423157692 0.09418995678424835
v -0.012102240696549416 0.06207208335399628 0.02219463139772415
v -0.02094983123242855 0.05973358079791069 0.021877218037843704
v -0.012102240696549416 0.06207208335399628 0.02219463139772415
v -0.011885171756148338 0.04345262423157692 0.09418995678424835
v -0.006131368689239025 0.04464394226670265 0.0942002385854721
v -0.01677427813410759 0.04143263027071953 0.09494875371456146
v -0.011885171756148338 0.04345262423157692 0.09418995678424835
v -0.017343848943710327 0.04157482460141182 0.09418702870607376
v 0.0014732461422681808 0.06408634036779404 -2.589940208963526e-07
v 0.002064090222120285 0.0639425665140152 0.017809879034757614
v 0.009543630294501781 0.06324130296707153 0.017562946304678917
v 0.007400413043797016 0.06278068572282791 0.022240230813622475
v -0.0021386046428233385 0.0632147341966629 0.022104179486632347
v -0.0003939640009775758 0.04505229741334915 0.09420045465230942
v 0.007400413043797016 0.06278068572282791 0.022240230813622475
v 0.002064090222120285 0.0639425665140152 0.017809879034757614
v -0.0021386046428233385 0.0632147341966629 0.022104179486632347
v 0.007400413043797016 0.06278068572282791 0.022240230813622475
v 0.009543630294501781 0.06324130296707153 0.017562946304678917
v 0.002064090222120285 0.0639425665140152 0.017809879034757614
v 0.027485698461532593 -0.057122375816106796 0.021459002047777176
v 0.032633814960718155 -0.05502822995185852 0.017786359414458275
v 0.035912007093429565 -0.0522453635931015 0.021479634568095207
v 0.035912007093429565 -0.0522453635931015 0.021479634568095207
v 0.029627924785017967 -0.03393946588039398 0.09419813007116318
v 0.024868860840797424 -0.03756631165742874 0.09420300275087357
v 0.035912007093429565 -0.0522453635931015 0.021479634568095207
v 0.032633814960718155 -0.05502822995185852 0.017786359414458275
v 0.04059668257832527 -0.04946497827768326 0.01763436757028103
v -0.028136739507317543 -0.05756078287959099 -2.716351445997134e-07
v 0.004959891550242901 -0.06381487101316452 -1.1733110039102712e-09
v -0.00401843897998333 -0.06392579525709152 5.738917341346905e-09
v 0.044823627918958664 -0.04583248496055603 -5.080906930743367e-07
v 0.004959891550242901 -0.06381487101316452 -1.1733110039102712e-09
v -0.028136739507317543 -0.05756078287959099 -2.716351445997134e-07
v 0.023024868220090866 -0.059766482561826706 -9.382328869378398e-08
v 0.004959891550242901 -0.06381487101316452 -1.1733110039102712e-09
v 0.044823627918958664 -0.04583248496055603 -5.080906930743367e-07
v -0.021570773795247078 -0.03971059247851372 0.09419607371091843
v -0.01192506868392229 -0.043177325278520584 0.09494881331920624
v -0.022343717515468597 -0.038809943944215775 0.09495130926370621
v -0.021570773795247078 -0.03971059247851372 0.09419607371091843
v -0.022343717515468597 -0.038809943944215775 0.09495130926370621
v -0.028833525255322456 -0.03461262583732605 0.09418939054012299
v -0.003883796976879239 -0.06390801817178726 0.017427261918783188
v -0.01203982811421156 -0.06285645812749863 -6.670627605842583e-09
v -0.00401843897998333 -0.06392579525709152 5.738917341346905e-09
v -0.003883796976879239 -0.06390801817178726 0.017427261918783188
v 0.005310164764523506 -0.0637890174984932 0.017599934712052345
v 0.0022614318877458572 -0.06313835084438324 0.022223329171538353
v -0.00401843897998333 -0.06392579525709152 5.738917341346905e-09
v 0.004959891550242901 -0.06381487101316452 -1.1733110039102712e-09
v -0.003883796976879239 -0.06390801817178726 0.017427261918783188
v -0.003883796976879239 -0.06390801817178726 0.017427261918783188
v 0.004959891550242901 -0.06381487101316452 -1.1733110039102712e-09
v 0.005310164764523506 -0.0637890174984932 0.017599934712052345
v -0.04357873648405075 -0.009946584701538086 0.09494874626398087
v -0.04208042100071907 -0.016096748411655426 0.09419209510087967
v -0.041153158992528915 -0.017660366371273994 0.09494921565055847
v -0.04208042100071907 -0.016096748411655426 0.09419209510087967
v -0.03967655077576637 -0.02134568616747856 0.09419209510087967
v -0.041153158992528915 -0.017660366371273994 0.09494921565055847
v -0.02897544577717781 -0.03403620794415474 0.09494875371456146
v -0.022343717515468597 -0.038809943944215775 0.09495130926370621
v -0.035327620804309845 -0.027521463111042976 0.09494921565055847
v -0.02897544577717781 -0.03403620794415474 0.09494875371456146
v -0.028833525255322456 -0.03461262583732605 0.09418939054012299
v -0.022343717515468597 -0.038809943944215775 0.09495130926370621
v -0.03662118315696716 -0.026244159787893295 0.09419210255146027
v -0.035327620804309845 -0.027521463111042976 0.09494921565055847
v -0.03967655077576637 -0.02134568616747856 0.09419209510087967
v -0.039941370487213135 -0.049214690923690796 0.021576885133981705
v -0.028833525255322456 -0.03461262583732605 0.09418939054012299
v -0.032964471727609634 -0.03071173094213009 0.09419210255146027
v -0.028833525255322456 -0.03461262583732605 0.09418939054012299
v -0.02897544577717781 -0.03403620794415474 0.09494875371456146
v -0.032964471727609634 -0.03071173094213009 0.09419210255146027
v -0.032964471727609634 -0.03071173094213009 0.09419210255146027
v -0.02897544577717781 -0.03403620794415474 0.09494875371456146
v -0.035327620804309845 -0.027521463111042976 0.09494921565055847
v -0.032964471727609634 -0.03071173094213009 0.09419210255146027
v -0.035327620804309845 -0.027521463111042976 0.09494921565055847
v -0.03662118315696716 -0.026244159787893295 0.09419210255146027
v -0.03822069242596626 -0.05126798897981644 0.017636597156524658
v -0.036898430436849594 -0.05230727419257164 -1.430946472424921e-08
v -0.03193189203739166 -0.05544514209032059 0.017741188406944275
v 0.060487743467092514 -0.018146630376577377 0.022555077448487282
v 0.06233642250299454 -0.010582728311419487 0.022040583193302155
v 0.04401037096977234 -0.009641044773161411 0.09420046955347061
v 0.06233642250299454 -0.010582728311419487 0.022040583193302155
v 0.04428683593869209 -0.00664402125403285 0.09494924545288086
v 0.04401037096977234 -0.009641044773161411 0.09420046955347061
v 0.06233642250299454 -0.010582728311419487 0.022040583193302155
v 0.06367785483598709 -0.0058613927103579044 0.017636600881814957
v 0.06309974193572998 -0.0038500656373798847 0.022236868739128113
v 0.06233642250299454 -0.010582728311419487 0.022040583193302155
v 0.06309974193572998 -0.0038500656373798847 0.022236868739128113
v 0.04487903416156769 -0.004024691414088011 0.09419610351324081
v 0.06233642250299454 -0.010582728311419487 0.022040583193302155
v 0.04487903416156769 -0.004024691414088011 0.09419610351324081
v 0.04428683593869209 -0.00664402125403285 0.09494924545288086
v 0.0618537999689579 -0.016787521541118622 -3.262469761011744e-08
v 0.05778136104345322 -0.02762952260673046 -8.447973698366695e-08
v 0.06405747681856155 -0.0025327554903924465 -4.999051270715427e-07
v 0.04337821528315544 -0.046263422816991806 0.021320248022675514
v 0.048447925597429276 -0.04082651063799858 0.02143668569624424
v 0.03380792587995529 -0.029769277200102806 0.0941968709230423
v 0.03380792587995529 -0.029769277200102806 0.0941968709230423
v 0.029627924785017967 -0.03393946588039398 0.09419813007116318
v 0.04337821528315544 -0.046263422816991806 0.021320248022675514
v 0.04337821528315544 -0.046263422816991806 0.021320248022675514
v 0.035912007093429565 -0.0522453635931015 0.021479634568095207
v 0.04059668257832527 -0.04946497827768326 0.01763436757028103
v 0.026766367256641388 -0.03587550297379494 0.09495005011558533
v 0.024868860840797424 -0.03756631165742874 0.09420300275087357
v 0.029627924785017967 -0.03393946588039398 0.09419813007116318
v 0.026766367256641388 -0.03587550297379494 0.09495005011558533
v 0.029627924785017967 -0.03393946588039398 0.09419813007116318
v 0.03308999165892601 -0.030051443725824356 0.09494876861572266
v 0.024868860840797424 -0.03756631165742874 0.09420300275087357
v 0.026766367256641388 -0.03587550297379494 0.09495005011558533
v 0.017183294519782066 -0.0413554348051548 0.09495166689157486
v 0.026766367256641388 -0.03587550297379494 0.09495005011558533
v 0.03804204612970352 -0.02364036627113819 0.09495027363300323
v 0.017183294519782066 -0.0413554348051548 0.09495166689157486
v 0.03308999165892601 -0.030051443725824356 0.09494876861572266
v 0.03804204612970352 -0.02364036627113819 0.09495027363300323
v 0.026766367256641388 -0.03587550297379494 0.09495005011558533
v 0.03380792587995529 -0.029769277200102806 0.0941968709230423
v 0.048447925597429276 -0.04082651063799858 0.02143668569624424
v 0.037221308797597885 -0.02537669986486435 0.09418942034244537
v 0.037221308797597885 -0.02537669986486435 0.09418942034244537
v 0.048447925597429276 -0.04082651063799858 0.02143668569624424
v 0.05264633148908615 -0.03531318157911301 0.021448688581585884
v 0.037221308797597885 -0.02537669986486435 0.09418942034244537
v 0.05264633148908615 -0.03531318157911301 0.021448688581585884
v 0.03804204612970352 -0.02364036627113819 0.09495027363300323
v 0.037221308797597885 -0.02537669986486435 0.09418942034244537
v 0.03308999165892601 -0.030051443725824356 0.09494876861572266
v 0.03380792587995529 -0.029769277200102806 0.0941968709230423
v 0.037221308797597885 -0.02537669986486435 0.09418942034244537
v 0.03804204612970352 -0.02364036627113819 0.09495027363300323
v 0.03308999165892601 -0.030051443725824356 0.09494876861572266
v 0.0550023689866066 -0.029860353097319603 0.024169137701392174
v 0.05264633148908615 -0.03531318157911301 0.021448688581585884
v 0.05737660825252533 -0.026989009231328964 0.02138752117753029
v 0.03804204612970352 -0.02364036627113819 0.09495027363300323
v 0.05264633148908615 -0.03531318157911301 0.021448688581585884
v 0.0550023689866066 -0.029860353097319603 0.024169137701392174
v 0.0415068194270134 -0.017839858308434486 0.09418430924415588
v 0.0550023689866066 -0.029860353097319603 0.024169137701392174
v 0.05737660825252533 -0.026989009231328964 0.02138752117753029
v 0.0550023689866066 -0.029860353097319603 0.024169137701392174
v 0.0415068194270134 -0.017839858308434486 0.09418430924415588
v 0.03804204612970352 -0.02364036627113819 0.09495027363300323
v 0.044823627918958664 -0.04583248496055603 -5.080906930743367e-07
v 0.04759395867586136 -0.04281017556786537 0.017531849443912506
v 0.04059668257832527 -0.04946497827768326 0.01763436757028103
v 0.04759395867586136 -0.04281017556786537 0.017531849443912506
v 0.04337821528315544 -0.046263422816991806 0.021320248022675514
v 0.04059668257832527 -0.04946497827768326 0.01763436757028103
v 0.048447925597429276 -0.04082651063799858 0.02143668569624424
v 0.04337821528315544 -0.046263422816991806 0.021320248022675514
v 0.04759395867586136 -0.04281017556786537 0.017531849443912506
v 0.038273826241493225 0.023756807669997215 0.09418705850839615
v 0.03822433948516846 0.023171866312623024 0.09494877606630325
v 0.04094338044524193 0.0187691617757082 0.09419505298137665
v 0.04094338044524193 0.0187691617757082 0.09419505298137665
v 0.05410318821668625 0.03303012624382973 0.02151002548635006
v 0.038273826241493225 0.023756807669997215 0.09418705850839615
v 0.038273826241493225 0.023756807669997215 0.09418705850839615
v 0.03494229167699814 0.028447652235627174 0.0942043587565422
v 0.03822433948516846 0.023171866312623024 0.09494877606630325
v 0.038273826241493225 0.023756807669997215 0.09418705850839615
v 0.05410318821668625 0.03303012624382973 0.02151002548635006
v 0.03494229167699814 0.028447652235627174 0.0942043587565422
v 0.05410318821668625 0.03303012624382973 0.02151002548635006
v 0.04865126684308052 0.040655095130205154 0.021401941776275635
v 0.03494229167699814 0.028447652235627174 0.0942043587565422
v 0.04350991174578667 0.04605316370725632 0.02143668942153454
v 0.030991891399025917 0.032694123685359955 0.09418941289186478
v 0.04865126684308052 0.040655095130205154 0.021401941776275635
v 0.04865126684308052 0.040655095130205154 0.021401941776275635
v 0.030991891399025917 0.032694123685359955 0.09418941289186478
v 0.03494229167699814 0.028447652235627174 0.0942043587565422
v 0.04094338044524193 0.0187691617757082 0.09419505298137665
v 0.04302753508090973 0.01335406769067049 0.09419813007116318
v 0.05864109843969345 0.024157175794243813 0.02132583223283291
v 0.05864109843969345 0.024157175794243813 0.02132583223283291
v 0.05410318821668625 0.03303012624382973 0.02151002548635006
v 0.04094338044524193 0.0187691617757082 0.09419505298137665
v -0.030539661645889282 0.056212153285741806 0.017811700701713562
v -0.021901719272136688 0.06013641878962517 0.017639704048633575
v -0.025885894894599915 0.058612074702978134 -2.8089124270991306e-07
v -0.021901719272136688 0.06013641878962517 0.017639704048633575
v -0.012961228378117085 0.06277856975793839 -2.7017506454285467e-07
v -0.025885894894599915 0.058612074702978134 -2.8089124270991306e-07
v -0.027797508984804153 0.056932464241981506 0.0214366652071476
v -0.017343848943710327 0.04157482460141182 0.09418702870607376
v -0.02094983123242855 0.05973358079791069 0.021877218037843704
v -0.02094983123242855 0.05973358079791069 0.021877218037843704
v -0.021901719272136688 0.06013641878962517 0.017639704048633575
v -0.027797508984804153 0.056932464241981506 0.0214366652071476
v -0.027797508984804153 0.056932464241981506 0.0214366652071476
v -0.021901719272136688 0.06013641878962517 0.017639704048633575
v -0.030539661645889282 0.056212153285741806 0.017811700701713562
v -0.043071355670690536 0.04748380184173584 -2.9334495366128976e-07
v -0.049163538962602615 0.04092855378985405 0.017824042588472366
v -0.042492445558309555 0.04783094674348831 0.017720472067594528
v -0.042492445558309555 0.04783094674348831 0.017720472067594528
v -0.03649389371275902 0.05252370610833168 0.017562873661518097
v -0.043071355670690536 0.04748380184173584 -2.9334495366128976e-07
v -0.04157526046037674 0.04784256964921951 0.021538427099585533
v -0.03649389371275902 0.05252370610833168 0.017562873661518097
v -0.042492445558309555 0.04783094674348831 0.017720472067594528
v 0.06399498134851456 0.001573452027514577 0.01756545715034008
v 0.06367785483598709 -0.0058613927103579044 0.017636600881814957
v 0.06405747681856155 -0.0025327554903924465 -4.999051270715427e-07
v 0.06309974193572998 -0.0038500656373798847 0.022236868739128113
v 0.06367785483598709 -0.0058613927103579044 0.017636600881814957
v 0.06399498134851456 0.001573452027514577 0.01756545715034008
v 0.04486154019832611 0.04577793926000595 7.457423834011934e-08
v 0.051956456154584885 0.03741918131709099 2.3566675722008767e-08
v 0.03374309092760086 0.054496318101882935 -4.0818821389621007e-07
v 0.051956456154584885 0.03741918131709099 2.3566675722008767e-08
v 0.060458991676568985 0.021357813850045204 -2.3574651208946307e-07
v 0.03374309092760086 0.054496318101882935 -4.0818821389621007e-07
v 0.05582418292760849 0.03129780292510986 1.9557898411903807e-08
v 0.060458991676568985 0.021357813850045204 -2.3574651208946307e-07
v 0.051956456154584885 0.03741918131709099 2.3566675722008767e-08
v -0.03822442889213562 0.02317182347178459 0.09494874626398087
v -0.0373312272131443 0.025445230305194855 0.0941842794418335
v -0.041336093097925186 0.01791699416935444 0.09420298039913177
v -0.041336093097925186 0.01791699416935444 0.09420298039913177
v -0.042004480957984924 0.015465252101421356 0.09494885802268982
v -0.03822442889213562 0.02317182347178459 0.09494874626398087
v -0.03822442889213562 0.02317182347178459 0.09494874626398087
v -0.03282151371240616 0.030476486310362816 0.09495025128126144
v -0.0373312272131443 0.025445230305194855 0.0941842794418335
v -0.03822442889213562 0.02317182347178459 0.09494874626398087
v -0.042004480957984924 0.015465252101421356 0.09494885802268982
v -0.03282151371240616 0.030476486310362816 0.09495025128126144
v -0.0441264808177948 0.007133993785828352 0.09494874626398087
v -0.04334603622555733 0.012281161732971668 0.09419810771942139
v -0.044572629034519196 0.0065146139822900295 0.09419601410627365
v -0.0441264808177948 0.007133993785828352 0.09494874626398087
v -0.042004480957984924 0.015465252101421356 0.09494885802268982
v -0.04334603622555733 0.012281161732971668 0.09419810771942139
v -0.0441264808177948 0.007133993785828352 0.09494874626398087
v -0.04357873648405075 -0.009946584701538086 0.09494874626398087
v -0.041153158992528915 -0.017660366371273994 0.09494921565055847
v -0.0441264808177948 0.007133993785828352 0.09494874626398087
v -0.041153158992528915 -0.017660366371273994 0.09494921565055847
v -0.03282151371240616 0.030476486310362816 0.09495025128126144
v -0.0441264808177948 0.007133993785828352 0.09494874626398087
v -0.03282151371240616 0.030476486310362816 0.09495025128126144
v -0.042004480957984924 0.015465252101421356 0.09494885802268982
v -0.06313914805650711 0.010407325811684132 0.017640570178627968
v -0.06384597718715668 0.003426042851060629 0.01779261790215969
v -0.0629364624619484 0.0062591880559921265 0.022124042734503746
v -0.06384597718715668 0.003426042851060629 0.01779261790215969
v -0.06311193853616714 -0.003392222337424755 0.02231721580028534
v -0.0629364624619484 0.0062591880559921265 0.022124042734503746
v -0.06384597718715668 0.003426042851060629 0.01779261790215969
v -0.06385789811611176 -0.003927641548216343 0.01769976317882538
v -0.06311193853616714 -0.003392222337424755 0.02231721580028534
v -0.06384597718715668 0.003426042851060629 0.01779261790215969
v -0.06313914805650711 0.010407325811684132 0.017640570178627968
v -0.06369064748287201 0.006816355977207422 -2.045508828985021e-08
v -0.06384597718715668 0.003426042851060629 0.01779261790215969
v -0.06369064748287201 0.006816355977207422 -2.045508828985021e-08
v -0.06396914273500443 -0.0036200708709657192 -2.670823846528947e-07
v -0.06384597718715668 0.003426042851060629 0.01779261790215969
v -0.06396914273500443 -0.0036200708709657192 -2.670823846528947e-07
v -0.06385789811611176 -0.003927641548216343 0.01769976317882538
v 0.016374602913856506 0.04197303205728531 0.09419211745262146
v 0.02149992063641548 0.039584577083587646 0.0941968634724617
v 0.025806332007050514 0.057939063757658005 0.021281586959958076
v 0.014593762345612049 0.0423378050327301 0.09494923800230026
v 0.02149992063641548 0.039584577083587646 0.0941968634724617
v 0.016374602913856506 0.04197303205728531 0.09419211745262146
v 0.026495646685361862 0.036437369883060455 0.09419812262058258
v 0.024769946932792664 0.037296146154403687 0.0949496403336525
v 0.030991891399025917 0.032694123685359955 0.09418941289186478
v 0.038247499614953995 0.05057591572403908 0.021360639482736588
v 0.026495646685361862 0.036437369883060455 0.09419812262058258
v 0.030991891399025917 0.032694123685359955 0.09418941289186478
v 0.026495646685361862 0.036437369883060455 0.09419812262058258
v 0.02149992063641548 0.039584577083587646 0.0941968634724617
v 0.024769946932792664 0.037296146154403687 0.0949496403336525
v 0.032023556530475616 0.0546671599149704 0.02143668569624424
v 0.029958782717585564 0.056560587137937546 0.017611341550946236
v 0.025806332007050514 0.057939063757658005 0.021281586959958076
v 0.025806332007050514 0.057939063757658005 0.021281586959958076
v 0.02149992063641548 0.039584577083587646 0.0941968634724617
v 0.032023556530475616 0.0546671599149704 0.02143668569624424
v 0.029958782717585564 0.056560587137937546 0.017611341550946236
v 0.032023556530475616 0.0546671599149704 0.02143668569624424
v 0.03808983787894249 0.05142083764076233 0.017626767978072166
v 0.032023556530475616 0.0546671599149704 0.02143668569624424
v 0.038247499614953995 0.05057591572403908 0.021360639482736588
v 0.03808983787894249 0.05142083764076233 0.017626767978072166
v 0.02149992063641548 0.039584577083587646 0.0941968634724617
v 0.026495646685361862 0.036437369883060455 0.09419812262058258
v 0.032023556530475616 0.0546671599149704 0.02143668569624424
v 0.032023556530475616 0.0546671599149704 0.02143668569624424
v 0.026495646685361862 0.036437369883060455 0.09419812262058258
v 0.038247499614953995 0.05057591572403908 0.021360639482736588
v -0.0021386046428233385 0.0632147341966629 0.022104179486632347
v 0.002064090222120285 0.0639425665140152 0.017809879034757614
v -0.007607870269566774 0.06353720277547836 0.017628002911806107
v -0.007607870269566774 0.06353720277547836 0.017628002911806107
v -0.012102240696549416 0.06207208335399628 0.02219463139772415
v -0.0021386046428233385 0.0632147341966629 0.022104179486632347
v -0.012961228378117085 0.06277856975793839 -2.7017506454285467e-07
v -0.007607870269566774 0.06353720277547836 0.017628002911806107
v 0.0014732461422681808 0.06408634036779404 -2.589940208963526e-07
v -0.007607870269566774 0.06353720277547836 0.017628002911806107
v 0.002064090222120285 0.0639425665140152 0.017809879034757614
v 0.0014732461422681808 0.06408634036779404 -2.589940208963526e-07
v -0.006131368689239025 0.04464394226670265 0.0942002385854721
v -0.011885171756148338 0.04345262423157692 0.09418995678424835
v -0.008555088192224503 0.04392829164862633 0.0949491560459137
v -0.011885171756148338 0.04345262423157692 0.09418995678424835
v -0.01677427813410759 0.04143263027071953 0.09494875371456146
v -0.008555088192224503 0.04392829164862633 0.0949491560459137
v -0.0003939640009775758 0.04505229741334915 0.09420045465230942
v -0.006131368689239025 0.04464394226670265 0.0942002385854721
v -0.008555088192224503 0.04392829164862633 0.0949491560459137
v -0.008555088192224503 0.04392829164862633 0.0949491560459137
v -0.03282151371240616 0.030476486310362816 0.09495025128126144
v 0.024769946932792664 0.037296146154403687 0.0949496403336525
v -0.008555088192224503 0.04392829164862633 0.0949491560459137
v 0.024769946932792664 0.037296146154403687 0.0949496403336525
v 0.014593762345612049 0.0423378050327301 0.09494923800230026
v -0.024414723739027977 0.037507425993680954 0.0949491560459137
v -0.02724991925060749 0.0358903706073761 0.0942002385854721
v -0.03282151371240616 0.030476486310362816 0.09495025128126144
v -0.024414723739027977 0.037507425993680954 0.0949491560459137
v -0.03282151371240616 0.030476486310362816 0.09495025128126144
v -0.008555088192224503 0.04392829164862633 0.0949491560459137
v -0.024414723739027977 0.037507425993680954 0.0949491560459137
v -0.008555088192224503 0.04392829164862633 0.0949491560459137
v -0.01677427813410759 0.04143263027071953 0.09494875371456146
v 0.012591551057994366 0.06276141852140427 6.846247124769889e-09
v 0.02148708701133728 0.06035970523953438 -2.5591765506760566e-07
v 0.0014732461422681808 0.06408634036779404 -2.589940208963526e-07
v 0.0014732461422681808 0.06408634036779404 -2.589940208963526e-07
v 0.009543630294501781 0.06324130296707153 0.017562946304678917
v 0.012591551057994366 0.06276141852140427 6.846247124769889e-09
v 0.016468781977891922 0.061815295368433 0.01783892884850502
v 0.02148708701133728 0.06035970523953438 -2.5591765506760566e-07
v 0.012591551057994366 0.06276141852140427 6.846247124769889e-09
v 0.016468781977891922 0.061815295368433 0.01783892884850502
v 0.012591551057994366 0.06276141852140427 6.846247124769889e-09
v 0.009543630294501781 0.06324130296707153 0.017562946304678917
v 0.027485698461532593 -0.057122375816106796 0.021459002047777176
v 0.035912007093429565 -0.0522453635931015 0.021479634568095207
v 0.03349211439490318 -0.05291185528039932 0.02413790300488472
v 0.03349211439490318 -0.05291185528039932 0.02413790300488472
v 0.035912007093429565 -0.0522453635931015 0.021479634568095207
v 0.024868860840797424 -0.03756631165742874 0.09420300275087357
v 0.03349211439490318 -0.05291185528039932 0.02413790300488472
v 0.019971853122115135 -0.04037819802761078 0.09418705105781555
v 0.027485698461532593 -0.057122375816106796 0.021459002047777176
v 0.019971853122115135 -0.04037819802761078 0.09418705105781555
v 0.03349211439490318 -0.05291185528039932 0.02413790300488472
v 0.024868860840797424 -0.03756631165742874 0.09420300275087357
v 0.026028050109744072 -0.05841032415628433 0.017636578530073166
v 0.032633814960718155 -0.05502822995185852 0.017786359414458275
v 0.027485698461532593 -0.057122375816106796 0.021459002047777176
v 0.004959891550242901 -0.06381487101316452 -1.1733110039102712e-09
v 0.023024868220090866 -0.059766482561826706 -9.382328869378398e-08
v 0.013866744935512543 -0.06249206140637398 1.7867314294761627e-09
v 0.03347322717308998 -0.05466005206108093 6.638282457060996e-08
v 0.023024868220090866 -0.059766482561826706 -9.382328869378398e-08
v 0.044823627918958664 -0.04583248496055603 -5.080906930743367e-07
v 0.03347322717308998 -0.05466005206108093 6.638282457060996e-08
v 0.044823627918958664 -0.04583248496055603 -5.080906930743367e-07
v 0.04059668257832527 -0.04946497827768326 0.01763436757028103
v 0.04059668257832527 -0.04946497827768326 0.01763436757028103
v 0.032633814960718155 -0.05502822995185852 0.017786359414458275
v 0.03347322717308998 -0.05466005206108093 6.638282457060996e-08
v 0.032633814960718155 -0.05502822995185852 0.017786359414458275
v 0.026028050109744072 -0.05841032415628433 0.017636578530073166
v 0.03347322717308998 -0.05466005206108093 6.638282457060996e-08
v 0.03347322717308998 -0.05466005206108093 6.638282457060996e-08
v 0.026028050109744072 -0.05841032415628433 0.017636578530073166
v 0.023024868220090866 -0.059766482561826706 -9.382328869378398e-08
v 0.014519176445901394 -0.04264817759394646 0.0942036360502243
v 0.027485698461532593 -0.057122375816106796 0.021459002047777176
v 0.017183294519782066 -0.0413554348051548 0.09495166689157486
v 0.014519176445901394 -0.04264817759394646 0.0942036360502243
v 0.018422244116663933 -0.06046389043331146 0.022244108840823174
v 0.027485698461532593 -0.057122375816106796 0.021459002047777176
v -0.022343717515468597 -0.038809943944215775 0.09495130926370621
v -0.01192506868392229 -0.043177325278520584 0.09494881331920624
v 0.006131277419626713 -0.04436153173446655 0.09495165944099426
v 0.006131277419626713 -0.04436153173446655 0.09495165944099426
v 0.014519176445901394 -0.04264817759394646 0.0942036360502243
v 0.017183294519782066 -0.0413554348051548 0.09495166689157486
v 0.008313143625855446 -0.044208649545907974 0.09416322410106659
v 0.014519176445901394 -0.04264817759394646 0.0942036360502243
v 0.006131277419626713 -0.04436153173446655 0.09495165944099426
v -0.03282151371240616 0.030476486310362816 0.09495025128126144
v 0.006131277419626713 -0.04436153173446655 0.09495165944099426
v 0.017183294519782066 -0.0413554348051548 0.09495166689157486
v 0.006131277419626713 -0.04436153173446655 0.09495165944099426
v -0.03282151371240616 0.030476486310362816 0.09495025128126144
v -0.022343717515468597 -0.038809943944215775 0.09495130926370621
v 0.004959891550242901 -0.06381487101316452 -1.1733110039102712e-09
v 0.012208251282572746 -0.06277088820934296 0.017636572942137718
v 0.005310164764523506 -0.0637890174984932 0.017599934712052345
v 0.013866744935512543 -0.06249206140637398 1.7867314294761627e-09
v 0.012208251282572746 -0.06277088820934296 0.017636572942137718
v 0.004959891550242901 -0.06381487101316452 -1.1733110039102712e-09
v -0.021570773795247078 -0.03971059247851372 0.09419607371091843
v -0.013622990809381008 -0.04293102025985718 0.09419449418783188
v -0.01192506868392229 -0.043177325278520584 0.09494881331920624
v -0.0322541669011116 -0.05459873005747795 0.02133410982787609
v -0.028891198337078094 -0.0554753839969635 0.024204496294260025
v -0.021570773795247078 -0.03971059247851372 0.09419607371091843
v -0.03822069242596626 -0.05126798897981644 0.017636597156524658
v -0.0322541669011116 -0.05459873005747795 0.02133410982787609
v -0.039941370487213135 -0.049214690923690796 0.021576885133981705
v -0.0322541669011116 -0.05459873005747795 0.02133410982787609
v -0.03822069242596626 -0.05126798897981644 0.017636597156524658
v -0.03193189203739166 -0.05544514209032059 0.017741188406944275
v -0.0253593847155571 -0.037195947021245956 0.09386716783046722
v -0.028833525255322456 -0.03461262583732605 0.09418939054012299
v -0.039941370487213135 -0.049214690923690796 0.021576885133981705
v -0.0253593847155571 -0.037195947021245956 0.09386716783046722
v -0.021570773795247078 -0.03971059247851372 0.09419607371091843
v -0.028833525255322456 -0.03461262583732605 0.09418939054012299
v -0.01203982811421156 -0.06285645812749863 -6.670627605842583e-09
v -0.014128106646239758 -0.06239873543381691 0.017772981896996498
v -0.019621821120381355 -0.0609305277466774 -9.056968508502905e-09
v -0.003883796976879239 -0.06390801817178726 0.017427261918783188
v -0.014128106646239758 -0.06239873543381691 0.017772981896996498
v -0.01203982811421156 -0.06285645812749863 -6.670627605842583e-09
v -0.043762076646089554 -0.010682176798582077 0.09419618546962738
v -0.04208042100071907 -0.016096748411655426 0.09419209510087967
v -0.04357873648405075 -0.009946584701538086 0.09494874626398087
v -0.04474656283855438 -0.005149136763066053 0.09419424831867218
v -0.043762076646089554 -0.010682176798582077 0.09419618546962738
v -0.04357873648405075 -0.009946584701538086 0.09494874626398087
v -0.043762076646089554 -0.010682176798582077 0.09419618546962738
v -0.04474656283855438 -0.005149136763066053 0.09419424831867218
v -0.061994247138500214 -0.012631750665605068 0.02199241891503334
v -0.039941370487213135 -0.049214690923690796 0.021576885133981705
v -0.032964471727609634 -0.03071173094213009 0.09419210255146027
v -0.047044433653354645 -0.04249046742916107 0.02144693396985531
v -0.047044433653354645 -0.04249046742916107 0.02144693396985531
v -0.032964471727609634 -0.03071173094213009 0.09419210255146027
v -0.03662118315696716 -0.026244159787893295 0.09419210255146027
v 0.05998774617910385 -0.022247474640607834 0.017647210508584976
v 0.060487743467092514 -0.018146630376577377 0.022555077448487282
v 0.05737660825252533 -0.026989009231328964 0.02138752117753029
v 0.05737660825252533 -0.026989009231328964 0.02138752117753029
v 0.0569940060377121 -0.02901192009449005 0.01760108768939972
v 0.05998774617910385 -0.022247474640607834 0.017647210508584976
v 0.05998774617910385 -0.022247474640607834 0.017647210508584976
v 0.0569940060377121 -0.02901192009449005 0.01760108768939972
v 0.05778136104345322 -0.02762952260673046 -8.447973698366695e-08
v 0.05998774617910385 -0.022247474640607834 0.017647210508584976
v 0.05778136104345322 -0.02762952260673046 -8.447973698366695e-08
v 0.0618537999689579 -0.016787521541118622 -3.262469761011744e-08
v 0.04041867330670357 -0.04783271998167038 0.0241410955786705
v 0.029627924785017967 -0.03393946588039398 0.09419813007116318
v 0.035912007093429565 -0.0522453635931015 0.021479634568095207
v 0.04041867330670357 -0.04783271998167038 0.0241410955786705
v 0.04337821528315544 -0.046263422816991806 0.021320248022675514
v 0.029627924785017967 -0.03393946588039398 0.09419813007116318
v 0.04337821528315544 -0.046263422816991806 0.021320248022675514
v 0.04041867330670357 -0.04783271998167038 0.0241410955786705
v 0.035912007093429565 -0.0522453635931015 0.021479634568095207
v 0.0569940060377121 -0.02901192009449005 0.01760108768939972
v 0.05264633148908615 -0.03531318157911301 0.021448688581585884
v 0.05356111377477646 -0.035015206784009933 0.01767827942967415
v 0.05356111377477646 -0.035015206784009933 0.01767827942967415
v 0.05778136104345322 -0.02762952260673046 -8.447973698366695e-08
v 0.0569940060377121 -0.02901192009449005 0.01760108768939972
v 0.05356111377477646 -0.035015206784009933 0.01767827942967415
v 0.05264633148908615 -0.03531318157911301 0.021448688581585884
v 0.048447925597429276 -0.04082651063799858 0.02143668569624424
v 0.048447925597429276 -0.04082651063799858 0.02143668569624424
v 0.04759395867586136 -0.04281017556786537 0.017531849443912506
v 0.05356111377477646 -0.035015206784009933 0.01767827942967415
v 0.04302753508090973 0.01335406769067049 0.09419813007116318
v 0.04439201578497887 0.0076649365946650505 0.09418942034244537
v 0.06149769574403763 0.015141567215323448 0.021723153069615364
v 0.05410318821668625 0.03303012624382973 0.02151002548635006
v 0.05864109843969345 0.024157175794243813 0.02132583223283291
v 0.05679463595151901 0.029449963942170143 0.01778753474354744
v 0.05679463595151901 0.029449963942170143 0.01778753474354744
v 0.060458991676568985 0.021357813850045204 -2.3574651208946307e-07
v 0.05582418292760849 0.03129780292510986 1.9557898411903807e-08
v -0.03282151371240616 0.030476486310362816 0.09495025128126144
v -0.02724991925060749 0.0358903706073761 0.0942002385854721
v -0.03168405592441559 0.03202385455369949 0.09418939799070358
v -0.04157526046037674 0.04784256964921951 0.021538427099585533
v -0.03168405592441559 0.03202385455369949 0.09418939799070358
v -0.02724991925060749 0.0358903706073761 0.0942002385854721
v -0.03168405592441559 0.03202385455369949 0.09418939799070358
v -0.04157526046037674 0.04784256964921951 0.021538427099585533
v -0.0447724275290966 0.043620720505714417 0.02433232218027115
v -0.04837214946746826 0.04103006422519684 0.02125556580722332
v -0.042492445558309555 0.04783094674348831 0.017720472067594528
v -0.049163538962602615 0.04092855378985405 0.017824042588472366
v -0.04837214946746826 0.04103006422519684 0.02125556580722332
v -0.04157526046037674 0.04784256964921951 0.021538427099585533
v -0.042492445558309555 0.04783094674348831 0.017720472067594528
v -0.0447724275290966 0.043620720505714417 0.02433232218027115
v -0.04157526046037674 0.04784256964921951 0.021538427099585533
v -0.04837214946746826 0.04103006422519684 0.02125556580722332
v -0.049163538962602615 0.04092855378985405 0.017824042588472366
v -0.05276188999414444 0.03507406637072563 0.021436657756567
v -0.04837214946746826 0.04103006422519684 0.02125556580722332
v -0.05276188999414444 0.03507406637072563 0.021436657756567
v -0.0373312272131443 0.025445230305194855 0.0941842794418335
v -0.04837214946746826 0.04103006422519684 0.02125556580722332
v -0.04837214946746826 0.04103006422519684 0.02125556580722332
v -0.0373312272131443 0.025445230305194855 0.0941842794418335
v -0.03282151371240616 0.030476486310362816 0.09495025128126144
v -0.03282151371240616 0.030476486310362816 0.09495025128126144
v -0.03168405592441559 0.03202385455369949 0.09418939799070358
v -0.04837214946746826 0.04103006422519684 0.02125556580722332
v -0.04837214946746826 0.04103006422519684 0.02125556580722332
v -0.03168405592441559 0.03202385455369949 0.09418939799070358
v -0.0447724275290966 0.043620720505714417 0.02433232218027115
v 0.06317836046218872 0.010297201573848724 2.103622520621684e-08
v 0.06405747681856155 -0.0025327554903924465 -4.999051270715427e-07
v 0.060458991676568985 0.021357813850045204 -2.3574651208946307e-07
v 0.06317836046218872 0.010297201573848724 2.103622520621684e-08
v 0.06399498134851456 0.001573452027514577 0.01756545715034008
v 0.06405747681856155 -0.0025327554903924465 -4.999051270715427e-07
v 0.04350991174578667 0.04605316370725632 0.02143668942153454
v 0.04865126684308052 0.040655095130205154 0.021401941776275635
v 0.045422978699207306 0.04505358636379242 0.017786342650651932
v 0.045422978699207306 0.04505358636379242 0.017786342650651932
v 0.03808983787894249 0.05142083764076233 0.017626767978072166
v 0.04350991174578667 0.04605316370725632 0.02143668942153454
v 0.045422978699207306 0.04505358636379242 0.017786342650651932
v 0.04486154019832611 0.04577793926000595 7.457423834011934e-08
v 0.03808983787894249 0.05142083764076233 0.017626767978072166
v 0.051806818693876266 0.037602510303258896 0.01748497225344181
v 0.04865126684308052 0.040655095130205154 0.021401941776275635
v 0.05410318821668625 0.03303012624382973 0.02151002548635006
v 0.05410318821668625 0.03303012624382973 0.02151002548635006
v 0.05679463595151901 0.029449963942170143 0.01778753474354744
v 0.051806818693876266 0.037602510303258896 0.01748497225344181
v 0.051806818693876266 0.037602510303258896 0.01748497225344181
v 0.045422978699207306 0.04505358636379242 0.017786342650651932
v 0.04865126684308052 0.040655095130205154 0.021401941776275635
v 0.05582418292760849 0.03129780292510986 1.9557898411903807e-08
v 0.051956456154584885 0.03741918131709099 2.3566675722008767e-08
v 0.051806818693876266 0.037602510303258896 0.01748497225344181
v 0.051806818693876266 0.037602510303258896 0.01748497225344181
v 0.05679463595151901 0.029449963942170143 0.01778753474354744
v 0.05582418292760849 0.03129780292510986 1.9557898411903807e-08
v 0.051806818693876266 0.037602510303258896 0.01748497225344181
v 0.051956456154584885 0.03741918131709099 2.3566675722008767e-08
v 0.04486154019832611 0.04577793926000595 7.457423834011934e-08
v 0.045422978699207306 0.04505358636379242 0.017786342650651932
v 0.051806818693876266 0.037602510303258896 0.01748497225344181
v 0.04486154019832611 0.04577793926000595 7.457423834011934e-08
v -0.044798340648412704 -0.0009682771051302552 0.09494161605834961
v -0.044572629034519196 0.0065146139822900295 0.09419601410627365
v -0.045057512819767 0.0005610823282040656 0.09419681131839752
v -0.044798340648412704 -0.0009682771051302552 0.09494161605834961
v -0.0441264808177948 0.007133993785828352 0.09494874626398087
v -0.044572629034519196 0.0065146139822900295 0.09419601410627365
v -0.04357873648405075 -0.009946584701538086 0.09494874626398087
v -0.0441264808177948 0.007133993785828352 0.09494874626398087
v -0.044798340648412704 -0.0009682771051302552 0.09494161605834961
v -0.044798340648412704 -0.0009682771051302552 0.09494161605834961
v -0.04474656283855438 -0.005149136763066053 0.09419424831867218
v -0.04357873648405075 -0.009946584701538086 0.09494874626398087
v -0.045057512819767 0.0005610823282040656 0.09419681131839752
v -0.06311193853616714 -0.003392222337424755 0.02231721580028534
v -0.044798340648412704 -0.0009682771051302552 0.09494161605834961
v -0.04474656283855438 -0.005149136763066053 0.09419424831867218
v -0.044798340648412704 -0.0009682771051302552 0.09494161605834961
v -0.06311193853616714 -0.003392222337424755 0.02231721580028534
v -0.007607870269566774 0.06353720277547836 0.017628002911806107
v -0.014587181620299816 0.06225856393575668 0.017682695761322975
v -0.012102240696549416 0.06207208335399628 0.02219463139772415
v -0.014587181620299816 0.06225856393575668 0.017682695761322975
v -0.02094983123242855 0.05973358079791069 0.021877218037843704
v -0.012102240696549416 0.06207208335399628 0.02219463139772415
v -0.014587181620299816 0.06225856393575668 0.017682695761322975
v -0.021901719272136688 0.06013641878962517 0.017639704048633575
v -0.02094983123242855 0.05973358079791069 0.021877218037843704
v -0.014587181620299816 0.06225856393575668 0.017682695761322975
v -0.012961228378117085 0.06277856975793839 -2.7017506454285467e-07
v -0.021901719272136688 0.06013641878962517 0.017639704048633575
v -0.014587181620299816 0.06225856393575668 0.017682695761322975
v -0.007607870269566774 0.06353720277547836 0.017628002911806107
v -0.012961228378117085 0.06277856975793839 -2.7017506454285467e-07
v -0.03386177867650986 0.05361964553594589 0.021331550553441048
v -0.030539661645889282 0.056212153285741806 0.017811700701713562
v -0.03649389371275902 0.05252370610833168 0.017562873661518097
v -0.03386177867650986 0.05361964553594589 0.021331550553441048
v -0.027797508984804153 0.056932464241981506 0.0214366652071476
v -0.030539661645889282 0.056212153285741806 0.017811700701713562
v -0.04157526046037674 0.04784256964921951 0.021538427099585533
v -0.03386177867650986 0.05361964553594589 0.021331550553441048
v -0.03649389371275902 0.05252370610833168 0.017562873661518097
v -0.03386177867650986 0.05361964553594589 0.021331550553441048
v -0.04157526046037674 0.04784256964921951 0.021538427099585533
v -0.02724991925060749 0.0358903706073761 0.0942002385854721
v 0.025806332007050514 0.057939063757658005 0.021281586959958076
v 0.029958782717585564 0.056560587137937546 0.017611341550946236
v 0.02346169576048851 0.05948759987950325 0.017636550590395927
v 0.02346169576048851 0.05948759987950325 0.017636550590395927
v 0.029958782717585564 0.056560587137937546 0.017611341550946236
v 0.02148708701133728 0.06035970523953438 -2.5591765506760566e-07
v 0.016468781977891922 0.061815295368433 0.01783892884850502
v 0.02346169576048851 0.05948759987950325 0.017636550590395927
v 0.02148708701133728 0.06035970523953438 -2.5591765506760566e-07
v 0.02071506343781948 0.0595705509185791 0.022765079513192177
v 0.016374602913856506 0.04197303205728531 0.09419211745262146
v 0.025806332007050514 0.057939063757658005 0.021281586959958076
v 0.025806332007050514 0.057939063757658005 0.021281586959958076
v 0.02346169576048851 0.05948759987950325 0.017636550590395927
v 0.02071506343781948 0.0595705509185791 0.022765079513192177
v 0.02071506343781948 0.0595705509185791 0.022765079513192177
v 0.02346169576048851 0.05948759987950325 0.017636550590395927
v 0.016468781977891922 0.061815295368433 0.01783892884850502
v 0.002768302569165826 0.044729895889759064 0.09494823962450027
v 0.007400413043797016 0.06278068572282791 0.022240230813622475
v -0.0003939640009775758 0.04505229741334915 0.09420045465230942
v 0.002768302569165826 0.044729895889759064 0.09494823962450027
v 0.005289461463689804 0.04473583772778511 0.09418703615665436
v 0.007400413043797016 0.06278068572282791 0.022240230813622475
v -0.008555088192224503 0.04392829164862633 0.0949491560459137
v 0.002768302569165826 0.044729895889759064 0.09494823962450027
v -0.0003939640009775758 0.04505229741334915 0.09420045465230942
v 0.002768302569165826 0.044729895889759064 0.09494823962450027
v -0.008555088192224503 0.04392829164862633 0.0949491560459137
v 0.014593762345612049 0.0423378050327301 0.09494923800230026
v 0.019535381346940994 -0.060944221913814545 0.01759805902838707
v 0.027485698461532593 -0.057122375816106796 0.021459002047777176
v 0.018422244116663933 -0.06046389043331146 0.022244108840823174
v 0.019535381346940994 -0.060944221913814545 0.01759805902838707
v 0.026028050109744072 -0.05841032415628433 0.017636578530073166
v 0.027485698461532593 -0.057122375816106796 0.021459002047777176
v 0.018422244116663933 -0.06046389043331146 0.022244108840823174
v 0.012208251282572746 -0.06277088820934296 0.017636572942137718
v 0.019535381346940994 -0.060944221913814545 0.01759805902838707
v 0.019535381346940994 -0.060944221913814545 0.01759805902838707
v 0.023024868220090866 -0.059766482561826706 -9.382328869378398e-08
v 0.026028050109744072 -0.05841032415628433 0.017636578530073166
v 0.019535381346940994 -0.060944221913814545 0.01759805902838707
v 0.013866744935512543 -0.06249206140637398 1.7867314294761627e-09
v 0.023024868220090866 -0.059766482561826706 -9.382328869378398e-08
v 0.019535381346940994 -0.060944221913814545 0.01759805902838707
v 0.012208251282572746 -0.06277088820934296 0.017636572942137718
v 0.013866744935512543 -0.06249206140637398 1.7867314294761627e-09
v 0.009830926544964314 -0.043937016278505325 0.09384667873382568
v 0.008313143625855446 -0.044208649545907974 0.09416322410106659
v 0.018422244116663933 -0.06046389043331146 0.022244108840823174
v 0.014519176445901394 -0.04264817759394646 0.0942036360502243
v 0.009830926544964314 -0.043937016278505325 0.09384667873382568
v 0.018422244116663933 -0.06046389043331146 0.022244108840823174
v 0.009830926544964314 -0.043937016278505325 0.09384667873382568
v 0.014519176445901394 -0.04264817759394646 0.0942036360502243
v 0.008313143625855446 -0.044208649545907974 0.09416322410106659
v 0.006131277419626713 -0.04436153173446655 0.09495165944099426
v 0.009385971352458 -0.06253327429294586 0.022188521921634674
v 0.008313143625855446 -0.044208649545907974 0.09416322410106659
v 0.008313143625855446 -0.044208649545907974 0.09416322410106659
v 0.009385971352458 -0.06253327429294586 0.022188521921634674
v 0.018422244116663933 -0.06046389043331146 0.022244108840823174
v 0.009385971352458 -0.06253327429294586 0.022188521921634674
v 0.012208251282572746 -0.06277088820934296 0.017636572942137718
v 0.018422244116663933 -0.06046389043331146 0.022244108840823174
v 0.0022614318877458572 -0.06313835084438324 0.022223329171538353
v 0.005310164764523506 -0.0637890174984932 0.017599934712052345
v 0.009385971352458 -0.06253327429294586 0.022188521921634674
v 0.005310164764523506 -0.0637890174984932 0.017599934712052345
v 0.012208251282572746 -0.06277088820934296 0.017636572942137718
v 0.009385971352458 -0.06253327429294586 0.022188521921634674
v -0.018155399709939957 -0.04118712618947029 0.09388072788715363
v -0.013622990809381008 -0.04293102025985718 0.09419449418783188
v -0.021570773795247078 -0.03971059247851372 0.09419607371091843
v -0.03734007850289345 -0.0502256415784359 0.02418012171983719
v -0.0322541669011116 -0.05459873005747795 0.02133410982787609
v -0.021570773795247078 -0.03971059247851372 0.09419607371091843
v -0.03734007850289345 -0.0502256415784359 0.02418012171983719
v -0.021570773795247078 -0.03971059247851372 0.09419607371091843
v -0.0253593847155571 -0.037195947021245956 0.09386716783046722
v -0.039941370487213135 -0.049214690923690796 0.021576885133981705
v -0.0322541669011116 -0.05459873005747795 0.02133410982787609
v -0.03734007850289345 -0.0502256415784359 0.02418012171983719
v -0.03734007850289345 -0.0502256415784359 0.02418012171983719
v -0.0253593847155571 -0.037195947021245956 0.09386716783046722
v -0.039941370487213135 -0.049214690923690796 0.021576885133981705
v 0.0032263786997646093 -0.044936228543519974 0.09420362114906311
v -0.005292737390846014 -0.04486720636487007 0.09418429434299469
v 0.0022614318877458572 -0.06313835084438324 0.022223329171538353
v 0.0022614318877458572 -0.06313835084438324 0.022223329171538353
v 0.009385971352458 -0.06253327429294586 0.022188521921634674
v 0.0032263786997646093 -0.044936228543519974 0.09420362114906311
v 0.0032263786997646093 -0.044936228543519974 0.09420362114906311
v 0.009385971352458 -0.06253327429294586 0.022188521921634674
v 0.006131277419626713 -0.04436153173446655 0.09495165944099426
v -0.019621821120381355 -0.0609305277466774 -9.056968508502905e-09
v -0.014128106646239758 -0.06239873543381691 0.017772981896996498
v -0.02350212074816227 -0.05952911823987961 0.017618248239159584
v -0.02350212074816227 -0.05952911823987961 0.017618248239159584
v -0.028136739507317543 -0.05756078287959099 -2.716351445997134e-07
v -0.019621821120381355 -0.0609305277466774 -9.056968508502905e-09
v -0.02350212074816227 -0.05952911823987961 0.017618248239159584
v -0.03193189203739166 -0.05544514209032059 0.017741188406944275
v -0.028136739507317543 -0.05756078287959099 -2.716351445997134e-07
v -0.00506366603076458 -0.06304608285427094 0.022081507369875908
v -0.014128106646239758 -0.06239873543381691 0.017772981896996498
v -0.003883796976879239 -0.06390801817178726 0.017427261918783188
v -0.00506366603076458 -0.06304608285427094 0.022081507369875908
v -0.003883796976879239 -0.06390801817178726 0.017427261918783188
v 0.0022614318877458572 -0.06313835084438324 0.022223329171538353
v -0.00506366603076458 -0.06304608285427094 0.022081507369875908
v 0.0022614318877458572 -0.06313835084438324 0.022223329171538353
v -0.005292737390846014 -0.04486720636487007 0.09418429434299469
v -0.06261724978685379 -0.01322720292955637 -2.098146367757181e-08
v -0.06130087375640869 -0.018383348360657692 0.017607765272259712
v -0.06302111595869064 -0.010887324810028076 0.017581619322299957
v -0.06130087375640869 -0.018383348360657692 0.017607765272259712
v -0.061994247138500214 -0.012631750665605068 0.02199241891503334
v -0.06302111595869064 -0.010887324810028076 0.017581619322299957
v -0.05541306734085083 -0.030808182433247566 0.021396318450570107
v -0.05783013626933098 -0.027360886335372925 0.01772400550544262
v -0.05314086750149727 -0.03568221628665924 0.017575301229953766
v -0.05541306734085083 -0.030808182433247566 0.021396318450570107
v -0.03662118315696716 -0.026244159787893295 0.09419210255146027
v -0.03967655077576637 -0.02134568616747856 0.09419209510087967
v -0.043649666011333466 -0.04676803946495056 0.01780751161277294
v -0.03822069242596626 -0.05126798897981644 0.017636597156524658
v -0.039941370487213135 -0.049214690923690796 0.021576885133981705
v -0.047044433653354645 -0.04249046742916107 0.02144693396985531
v -0.043649666011333466 -0.04676803946495056 0.01780751161277294
v -0.039941370487213135 -0.049214690923690796 0.021576885133981705
v -0.05783013626933098 -0.027360886335372925 0.01772400550544262
v -0.055310606956481934 -0.032380588352680206 -6.149737430405366e-08
v -0.05314086750149727 -0.03568221628665924 0.017575301229953766
v -0.055310606956481934 -0.032380588352680206 -6.149737430405366e-08
v -0.048939574509859085 -0.04124089330434799 -1.7749234970665384e-08
v -0.05314086750149727 -0.03568221628665924 0.017575301229953766
v -0.05139680951833725 -0.03704558685421944 0.021436654031276703
v -0.05541306734085083 -0.030808182433247566 0.021396318450570107
v -0.05314086750149727 -0.03568221628665924 0.017575301229953766
v -0.05139680951833725 -0.03704558685421944 0.021436654031276703
v -0.047044433653354645 -0.04249046742916107 0.02144693396985531
v -0.03662118315696716 -0.026244159787893295 0.09419210255146027
v -0.05139680951833725 -0.03704558685421944 0.021436654031276703
v -0.03662118315696716 -0.026244159787893295 0.09419210255146027
v -0.05541306734085083 -0.030808182433247566 0.021396318450570107
v 0.06268992274999619 -0.012926415540277958 0.017602942883968353
v 0.06233642250299454 -0.010582728311419487 0.022040583193302155
v 0.060487743467092514 -0.018146630376577377 0.022555077448487282
v 0.060487743467092514 -0.018146630376577377 0.022555077448487282
v 0.05998774617910385 -0.022247474640607834 0.017647210508584976
v 0.06268992274999619 -0.012926415540277958 0.017602942883968353
v 0.06367785483598709 -0.0058613927103579044 0.017636600881814957
v 0.06233642250299454 -0.010582728311419487 0.022040583193302155
v 0.06268992274999619 -0.012926415540277958 0.017602942883968353
v 0.06268992274999619 -0.012926415540277958 0.017602942883968353
v 0.05998774617910385 -0.022247474640607834 0.017647210508584976
v 0.0618537999689579 -0.016787521541118622 -3.262469761011744e-08
v 0.06405747681856155 -0.0025327554903924465 -4.999051270715427e-07
v 0.06367785483598709 -0.0058613927103579044 0.017636600881814957
v 0.06268992274999619 -0.012926415540277958 0.017602942883968353
v 0.06268992274999619 -0.012926415540277958 0.017602942883968353
v 0.0618537999689579 -0.016787521541118622 -3.262469761011744e-08
v 0.06405747681856155 -0.0025327554903924465 -4.999051270715427e-07
v 0.05299612879753113 -0.03590202331542969 1.5698992328339045e-08
v 0.044823627918958664 -0.04583248496055603 -5.080906930743367e-07
v 0.05778136104345322 -0.02762952260673046 -8.447973698366695e-08
v 0.05299612879753113 -0.03590202331542969 1.5698992328339045e-08
v 0.05778136104345322 -0.02762952260673046 -8.447973698366695e-08
v 0.05356111377477646 -0.035015206784009933 0.01767827942967415
v 0.05299612879753113 -0.03590202331542969 1.5698992328339045e-08
v 0.04759395867586136 -0.04281017556786537 0.017531849443912506
v 0.044823627918958664 -0.04583248496055603 -5.080906930743367e-07
v 0.05299612879753113 -0.03590202331542969 1.5698992328339045e-08
v 0.05356111377477646 -0.035015206784009933 0.01767827942967415
v 0.04759395867586136 -0.04281017556786537 0.017531849443912506
v 0.05946984887123108 0.020054291933774948 0.023669155314564705
v 0.05864109843969345 0.024157175794243813 0.02132583223283291
v 0.04302753508090973 0.01335406769067049 0.09419813007116318
v 0.04302753508090973 0.01335406769067049 0.09419813007116318
v 0.06149769574403763 0.015141567215323448 0.021723153069615364
v 0.05946984887123108 0.020054291933774948 0.023669155314564705
v 0.05946984887123108 0.020054291933774948 0.023669155314564705
v 0.06149769574403763 0.015141567215323448 0.021723153069615364
v 0.05864109843969345 0.024157175794243813 0.02132583223283291
v 0.045026373118162155 0.001816152362152934 0.0942002609372139
v 0.06309974193572998 -0.0038500656373798847 0.022236868739128113
v 0.06297457218170166 0.005707983393222094 0.022190280258655548
v 0.06309974193572998 -0.0038500656373798847 0.022236868739128113
v 0.06399498134851456 0.001573452027514577 0.01756545715034008
v 0.06297457218170166 0.005707983393222094 0.022190280258655548
v 0.06297457218170166 0.005707983393222094 0.022190280258655548
v 0.04439201578497887 0.0076649365946650505 0.09418942034244537
v 0.045026373118162155 0.001816152362152934 0.0942002609372139
v 0.06297457218170166 0.005707983393222094 0.022190280258655548
v 0.06149769574403763 0.015141567215323448 0.021723153069615364
v 0.04439201578497887 0.0076649365946650505 0.09418942034244537
v 0.060458991676568985 0.021357813850045204 -2.3574651208946307e-07
v 0.05679463595151901 0.029449963942170143 0.01778753474354744
v 0.05977713689208031 0.022687867283821106 0.017792649567127228
v 0.05977713689208031 0.022687867283821106 0.017792649567127228
v 0.05679463595151901 0.029449963942170143 0.01778753474354744
v 0.05864109843969345 0.024157175794243813 0.02132583223283291
v 0.06149769574403763 0.015141567215323448 0.021723153069615364
v 0.05977713689208031 0.022687867283821106 0.017792649567127228
v 0.05864109843969345 0.024157175794243813 0.02132583223283291
v 0.06399498134851456 0.001573452027514577 0.01756545715034008
v 0.06317836046218872 0.010297201573848724 2.103622520621684e-08
v 0.06336252391338348 0.008626469410955906 0.01763664186000824
v 0.06336252391338348 0.008626469410955906 0.01763664186000824
v 0.06297457218170166 0.005707983393222094 0.022190280258655548
v 0.06399498134851456 0.001573452027514577 0.01756545715034008
v 0.06336252391338348 0.008626469410955906 0.01763664186000824
v 0.06149769574403763 0.015141567215323448 0.021723153069615364
v 0.06297457218170166 0.005707983393222094 0.022190280258655548
v -0.02724991925060749 0.0358903706073761 0.0942002385854721
v -0.024414723739027977 0.037507425993680954 0.0949491560459137
v -0.022451264783740044 0.03906158357858658 0.09420044720172882
v -0.022451264783740044 0.03906158357858658 0.09420044720172882
v -0.03386177867650986 0.05361964553594589 0.021331550553441048
v -0.02724991925060749 0.0358903706073761 0.0942002385854721
v -0.03386177867650986 0.05361964553594589 0.021331550553441048
v -0.022451264783740044 0.03906158357858658 0.09420044720172882
v -0.027797508984804153 0.056932464241981506 0.0214366652071476
v -0.022451264783740044 0.03906158357858658 0.09420044720172882
v -0.01677427813410759 0.04143263027071953 0.09494875371456146
v -0.017343848943710327 0.04157482460141182 0.09418702870607376
v -0.022451264783740044 0.03906158357858658 0.09420044720172882
v -0.024414723739027977 0.037507425993680954 0.0949491560459137
v -0.01677427813410759 0.04143263027071953 0.09494875371456146
v -0.017343848943710327 0.04157482460141182 0.09418702870607376
v -0.027797508984804153 0.056932464241981506 0.0214366652071476
v -0.022451264783740044 0.03906158357858658 0.09420044720172882
v 0.014124995097517967 0.06162901595234871 0.0220459196716547
v 0.02071506343781948 0.0595705509185791 0.022765079513192177
v 0.016468781977891922 0.061815295368433 0.01783892884850502
v 0.009543630294501781 0.06324130296707153 0.017562946304678917
v 0.007400413043797016 0.06278068572282791 0.022240230813622475
v 0.014124995097517967 0.06162901595234871 0.0220459196716547
v 0.014124995097517967 0.06162901595234871 0.0220459196716547
v 0.016468781977891922 0.061815295368433 0.01783892884850502
v 0.009543630294501781 0.06324130296707153 0.017562946304678917
v 0.007400413043797016 0.06278068572282791 0.022240230813622475
v 0.005289461463689804 0.04473583772778511 0.09418703615665436
v 0.014124995097517967 0.06162901595234871 0.0220459196716547
v -0.0028639077208936214 -0.04460758715867996 0.09494876116514206
v 0.0032263786997646093 -0.044936228543519974 0.09420362114906311
v 0.006131277419626713 -0.04436153173446655 0.09495165944099426
v -0.005292737390846014 -0.04486720636487007 0.09418429434299469
v 0.0032263786997646093 -0.044936228543519974 0.09420362114906311
v -0.0028639077208936214 -0.04460758715867996 0.09494876116514206
v -0.0028639077208936214 -0.04460758715867996 0.09494876116514206
v 0.006131277419626713 -0.04436153173446655 0.09495165944099426
v -0.01192506868392229 -0.043177325278520584 0.09494881331920624
v -0.01192506868392229 -0.043177325278520584 0.09494881331920624
v -0.005292737390846014 -0.04486720636487007 0.09418429434299469
v -0.0028639077208936214 -0.04460758715867996 0.09494876116514206
v -0.023201625794172287 -0.05892811715602875 0.02172618731856346
v -0.02350212074816227 -0.05952911823987961 0.017618248239159584
v -0.014128106646239758 -0.06239873543381691 0.017772981896996498
v -0.013622990809381008 -0.04293102025985718 0.09419449418783188
v -0.018155399709939957 -0.04118712618947029 0.09388072788715363
v -0.023201625794172287 -0.05892811715602875 0.02172618731856346
v -0.023201625794172287 -0.05892811715602875 0.02172618731856346
v -0.018155399709939957 -0.04118712618947029 0.09388072788715363
v -0.021570773795247078 -0.03971059247851372 0.09419607371091843
v -0.023201625794172287 -0.05892811715602875 0.02172618731856346
v -0.0322541669011116 -0.05459873005747795 0.02133410982787609
v -0.03193189203739166 -0.05544514209032059 0.017741188406944275
v -0.02350212074816227 -0.05952911823987961 0.017618248239159584
v -0.023201625794172287 -0.05892811715602875 0.02172618731856346
v -0.03193189203739166 -0.05544514209032059 0.017741188406944275
v -0.028891198337078094 -0.0554753839969635 0.024204496294260025
v -0.0322541669011116 -0.05459873005747795 0.02133410982787609
v -0.023201625794172287 -0.05892811715602875 0.02172618731856346
v -0.023201625794172287 -0.05892811715602875 0.02172618731856346
v -0.021570773795247078 -0.03971059247851372 0.09419607371091843
v -0.028891198337078094 -0.0554753839969635 0.024204496294260025
v -0.01416504941880703 -0.06159285455942154 0.022370172664523125
v -0.00506366603076458 -0.06304608285427094 0.022081507369875908
v -0.005292737390846014 -0.04486720636487007 0.09418429434299469
v -0.01416504941880703 -0.06159285455942154 0.022370172664523125
v -0.014128106646239758 -0.06239873543381691 0.017772981896996498
v -0.00506366603076458 -0.06304608285427094 0.022081507369875908
v -0.01416504941880703 -0.06159285455942154 0.022370172664523125
v -0.005292737390846014 -0.04486720636487007 0.09418429434299469
v -0.01192506868392229 -0.043177325278520584 0.09494881331920624
v -0.013622990809381008 -0.04293102025985718 0.09419449418783188
v -0.01416504941880703 -0.06159285455942154 0.022370172664523125
v -0.01192506868392229 -0.043177325278520584 0.09494881331920624
v -0.023201625794172287 -0.05892811715602875 0.02172618731856346
v -0.01416504941880703 -0.06159285455942154 0.022370172664523125
v -0.013622990809381008 -0.04293102025985718 0.09419449418783188
v -0.01416504941880703 -0.06159285455942154 0.022370172664523125
v -0.023201625794172287 -0.05892811715602875 0.02172618731856346
v -0.014128106646239758 -0.06239873543381691 0.017772981896996498
v -0.059343285858631134 -0.02186652086675167 0.022121887654066086
v -0.061994247138500214 -0.012631750665605068 0.02199241891503334
v -0.06130087375640869 -0.018383348360657692 0.017607765272259712
v -0.059343285858631134 -0.02186652086675167 0.022121887654066086
v -0.043762076646089554 -0.010682176798582077 0.09419618546962738
v -0.061994247138500214 -0.012631750665605068 0.02199241891503334
v -0.043762076646089554 -0.010682176798582077 0.09419618546962738
v -0.059343285858631134 -0.02186652086675167 0.022121887654066086
v -0.04208042100071907 -0.016096748411655426 0.09419209510087967
v -0.059343285858631134 -0.02186652086675167 0.022121887654066086
v -0.06130087375640869 -0.018383348360657692 0.017607765272259712
v -0.05783013626933098 -0.027360886335372925 0.01772400550544262
v -0.05541306734085083 -0.030808182433247566 0.021396318450570107
v -0.059343285858631134 -0.02186652086675167 0.022121887654066086
v -0.05783013626933098 -0.027360886335372925 0.01772400550544262
v -0.059343285858631134 -0.02186652086675167 0.022121887654066086
v -0.03967655077576637 -0.02134568616747856 0.09419209510087967
v -0.04208042100071907 -0.016096748411655426 0.09419209510087967
v -0.059343285858631134 -0.02186652086675167 0.022121887654066086
v -0.05541306734085083 -0.030808182433247566 0.021396318450570107
v -0.03967655077576637 -0.02134568616747856 0.09419209510087967
v -0.0487825907766819 -0.04134594276547432 0.017636561766266823
v -0.043649666011333466 -0.04676803946495056 0.01780751161277294
v -0.047044433653354645 -0.04249046742916107 0.02144693396985531
v -0.0487825907766819 -0.04134594276547432 0.017636561766266823
v -0.05139680951833725 -0.03704558685421944 0.021436654031276703
v -0.05314086750149727 -0.03568221628665924 0.017575301229953766
v -0.05139680951833725 -0.03704558685421944 0.021436654031276703
v -0.0487825907766819 -0.04134594276547432 0.017636561766266823
v -0.047044433653354645 -0.04249046742916107 0.02144693396985531
v -0.05314086750149727 -0.03568221628665924 0.017575301229953766
v -0.048939574509859085 -0.04124089330434799 -1.7749234970665384e-08
v -0.0487825907766819 -0.04134594276547432 0.017636561766266823
v -0.05783013626933098 -0.027360886335372925 0.01772400550544262
v -0.06130087375640869 -0.018383348360657692 0.017607765272259712
v -0.06018051505088806 -0.0219180379062891 -1.0371498149197578e-07
v -0.06018051505088806 -0.0219180379062891 -1.0371498149197578e-07
v -0.055310606956481934 -0.032380588352680206 -6.149737430405366e-08
v -0.05783013626933098 -0.027360886335372925 0.01772400550544262
v -0.06018051505088806 -0.0219180379062891 -1.0371498149197578e-07
v -0.06130087375640869 -0.018383348360657692 0.017607765272259712
v -0.06261724978685379 -0.01322720292955637 -2.098146367757181e-08
v -0.06018051505088806 -0.0219180379062891 -1.0371498149197578e-07
v -0.06261724978685379 -0.01322720292955637 -2.098146367757181e-08
v -0.06396914273500443 -0.0036200708709657192 -2.670823846528947e-07
v -0.06018051505088806 -0.0219180379062891 -1.0371498149197578e-07
v -0.06396914273500443 -0.0036200708709657192 -2.670823846528947e-07
v -0.028136739507317543 -0.05756078287959099 -2.716351445997134e-07
v -0.06018051505088806 -0.0219180379062891 -1.0371498149197578e-07
v -0.028136739507317543 -0.05756078287959099 -2.716351445997134e-07
v -0.055310606956481934 -0.032380588352680206 -6.149737430405366e-08
v -0.04382210597395897 -0.04672849178314209 -8.673958262761516e-08
v -0.055310606956481934 -0.032380588352680206 -6.149737430405366e-08
v -0.028136739507317543 -0.05756078287959099 -2.716351445997134e-07
v -0.055310606956481934 -0.032380588352680206 -6.149737430405366e-08
v -0.04382210597395897 -0.04672849178314209 -8.673958262761516e-08
v -0.048939574509859085 -0.04124089330434799 -1.7749234970665384e-08
v -0.04382210597395897 -0.04672849178314209 -8.673958262761516e-08
v -0.028136739507317543 -0.05756078287959099 -2.716351445997134e-07
v -0.036898430436849594 -0.05230727419257164 -1.430946472424921e-08
v -0.04382210597395897 -0.04672849178314209 -8.673958262761516e-08
v -0.036898430436849594 -0.05230727419257164 -1.430946472424921e-08
v -0.03822069242596626 -0.05126798897981644 0.017636597156524658
v -0.043649666011333466 -0.04676803946495056 0.01780751161277294
v -0.04382210597395897 -0.04672849178314209 -8.673958262761516e-08
v -0.03822069242596626 -0.05126798897981644 0.017636597156524658
v -0.04382210597395897 -0.04672849178314209 -8.673958262761516e-08
v -0.0487825907766819 -0.04134594276547432 0.017636561766266823
v -0.048939574509859085 -0.04124089330434799 -1.7749234970665384e-08
v -0.0487825907766819 -0.04134594276547432 0.017636561766266823
v -0.04382210597395897 -0.04672849178314209 -8.673958262761516e-08
v -0.043649666011333466 -0.04676803946495056 0.01780751161277294
v 0.06197856366634369 0.015890875831246376 0.017729099839925766
v 0.05977713689208031 0.022687867283821106 0.017792649567127228
v 0.06149769574403763 0.015141567215323448 0.021723153069615364
v 0.06336252391338348 0.008626469410955906 0.01763664186000824
v 0.06197856366634369 0.015890875831246376 0.017729099839925766
v 0.06149769574403763 0.015141567215323448 0.021723153069615364
v 0.060458991676568985 0.021357813850045204 -2.3574651208946307e-07
v 0.05977713689208031 0.022687867283821106 0.017792649567127228
v 0.06197856366634369 0.015890875831246376 0.017729099839925766
v 0.06197856366634369 0.015890875831246376 0.017729099839925766
v 0.06317836046218872 0.010297201573848724 2.103622520621684e-08
v 0.060458991676568985 0.021357813850045204 -2.3574651208946307e-07
v 0.06197856366634369 0.015890875831246376 0.017729099839925766
v 0.06336252391338348 0.008626469410955906 0.01763664186000824
v 0.06317836046218872 0.010297201573848724 2.103622520621684e-08
v 0.010967087931931019 0.043693359941244125 0.09418995678424835
v 0.014124995097517967 0.06162901595234871 0.0220459196716547
v 0.005289461463689804 0.04473583772778511 0.09418703615665436
v 0.010967087931931019 0.043693359941244125 0.09418995678424835
v 0.002768302569165826 0.044729895889759064 0.09494823962450027
v 0.014593762345612049 0.0423378050327301 0.09494923800230026
v 0.005289461463689804 0.04473583772778511 0.09418703615665436
v 0.002768302569165826 0.044729895889759064 0.09494823962450027
v 0.010967087931931019 0.043693359941244125 0.09418995678424835
v 0.014124995097517967 0.06162901595234871 0.0220459196716547
v 0.010967087931931019 0.043693359941244125 0.09418995678424835
v 0.02071506343781948 0.0595705509185791 0.022765079513192177
v 0.014593762345612049 0.0423378050327301 0.09494923800230026
v 0.016374602913856506 0.04197303205728531 0.09419211745262146
v 0.010967087931931019 0.043693359941244125 0.09418995678424835
v 0.016374602913856506 0.04197303205728531 0.09419211745262146
v 0.02071506343781948 0.0595705509185791 0.022765079513192177
v 0.010967087931931019 0.043693359941244125 0.09418995678424835
usemtl DefaultMaterial
f 1 2 3
f 4 5 6
f 7 8 9
f 10 11 12
f 13 14 15
f 16 17 18
f 19 20 21
f 22 23 24
f 25 26 27
f 28 29 30
f 31 32 33
f 34 35 36
f 37 38 39
f 40 41 42
f 43 44 45
f 46 47 48
f 49 50 51
f 52 53 54
f 55 56 57
f 58 59 60
f 61 62 63
f 64 65 66
f 67 68 69
f 70 71 72
f 73 74 75
f 76 77 78
f 79 80 81
f 82 83 84
f 85 86 87
f 88 89 90
f 91 92 93
f 94 95 96
f 97 98 99
f 100 101 102
f 103 104 105
f 106 107 108
f 109 110 111
f 112 113 114
f 115 116 117
f 118 119 120
f 121 122 123
f 124 125 126
f 127 128 129
f 130 131 132
f 133 134 135
f 136 137 138
f 139 140 141
f 142 143 144
f 145 146 147
f 148 149 150
f 151 152 153
f 154 155 156
f 157 158 159
f 160 161 162
f 163 164 165
f 166 167 168
f 169 170 171
f 172 173 174
f 175 176 177
f 178 179 180
f 181 182 183
f 184 185 186
f 187 188 189
f 190 191 192
f 193 194 195
f 196 197 198
f 199 200 201
f 202 203 204
f 205 206 207
f 208 209 210
f 211 212 213
f 214 215 216
f 217 218 219
f 220 221 222
f 223 224 225
f 226 227 228
f 229 230 231
f 232 233 234
f 235 236 237
f 238 239 240
f 241 242 243
f 244 245 246
f 247 248 249
f 250 251 252
f 253 254 255
f 256 257 258
f 259 260 261
f 262 263 264
f 265 266 267
f 268 269 270
f 271 272 273
f 274 275 276
f 277 278 279
f 280 281 282
f 283 284 285
f 286 287 288
f 289 290 291
f 292 293 294
f 295 296 297
f 298 299 300
f 301 302 303
f 304 305 306
f 307 308 309
f 310 311 312
f 313 314 315
f 316 317 318
f 319 320 321
f 322 323 324
f 325 326 327
f 328 329 330
f 331 332 333
f 334 335 336
f 337 338 339
f 340 341 342
f 343 344 345
f 346 347 348
f 349 350 351
f 352 353 354
f 355 356 357
f 358 359 360
f 361 362 363
f 364 365 366
f 367 368 369
f 370 371 372
f 373 374 375
f 376 377 378
f 379 380 381
f 382 383 384
f 385 386 387
f 388 389 390
f 391 392 393
f 394 395 396
f 397 398 399
f 400 401 402
f 403 404 405
f 406 407 408
f 409 410 411
f 412 413 414
f 415 416 417
f 418 419 420
f 421 422 423
f 424 425 426
f 427 428 429
f 430 431 432
f 433 434 435
f 436 437 438
f 439 440 441
f 442 443 444
f 445 446 447
f 448 449 450
f 451 452 453
f 454 455 456
f 457 458 459
f 460 461 462
f 463 464 465
f 466 467 468
f 469 470 471
f 472 473 474
f 475 476 477
f 478 479 480
f 481 482 483
f 484 485 486
f 487 488 489
f 490 491 492
f 493 494 495
f 496 497 498
f 499 500 501
f 502 503 504
f 505 506 507
f 508 509 510
f 511 512 513
f 514 515 516
f 517 518 519
f 520 521 522
f 523 524 525
f 526 527 528
f 529 530 531
f 532 533 534
f 535 536 537
f 538 539 540
f 541 542 543
f 544 545 546
f 547 548 549
f 550 551 552
f 553 554 555
f 556 557 558
f 559 560 561
f 562 563 564
f 565 566 567
f 568 569 570
f 571 572 573
f 574 575 576
f 577 578 579
f 580 581 582
f 583 584 585
f 586 587 588
f 589 590 591
f 592 593 594
f 595 596 597
f 598 599 600
f 601 602 603
f 604 605 606
f 607 608 609
f 610 611 612
f 613 614 615
f 616 617 618
f 619 620 621
f 622 623 624
f 625 626 627
f 628 629 630
f 631 632 633
f 634 635 636
f 637 638 639
f 640 641 642
f 643 644 645
f 646 647 648
f 649 650 651
f 652 653 654
f 655 656 657
f 658 659 660
f 661 662 663
f 664 665 666
f 667 668 669
f 670 671 672
f 673 674 675
f 676 677 678
f 679 680 681
f 682 683 684
f 685 686 687
f 688 689 690
f 691 692 693
f 694 695 696
f 697 698 699
f 700 701 702
f 703 704 705
f 706 707 708
f 709 710 711
f 712 713 714
f 715 716 717
f 718 719 720
f 721 722 723
f 724 725 726
f 727 728 729
f 730 731 732
f 733 734 735
f 736 737 738
f 739 740 741
f 742 743 744
f 745 746 747
f 748 749 750
f 751 752 753
f 754 755 756
f 757 758 759
f 760 761 762
f 763 764 765
f 766 767 768
f 769 770 771
f 772 773 774
f 775 776 777
f 778 779 780
f 781 782 783
f 784 785 786
f 787 788 789
f 790 791 792
f 793 794 795
f 796 797 798
f 799 800 801
f 802 803 804
f 805 806 807
f 808 809 810
f 811 812 813
f 814 815 816
f 817 818 819
f 820 821 822
f 823 824 825
f 826 827 828
f 829 830 831
f 832 833 834
f 835 836 837
f 838 839 840
f 841 842 843
f 844 845 846
f 847 848 849
f 850 851 852
f 853 854 855
f 856 857 858
f 859 860 861
f 862 863 864
f 865 866 867
f 868 869 870
f 871 872 873
f 874 875 876
f 877 878 879
f 880 881 882
f 883 884 885
f 886 887 888
f 889 890 891
f 892 893 894
f 895 896 897
f 898 899 900
f 901 902 903
f 904 905 906
f 907 908 909
f 910 911 912
f 913 914 915
f 916 917 918
f 919 920 921
f 922 923 924
f 925 926 927
f 928 929 930
f 931 932 933
f 934 935 936
f 937 938 939
f 940 941 942
f 943 944 945
f 946 947 948
f 949 950 951
f 952 953 954
f 955 956 957
f 958 959 960
f 961 962 963
f 964 965 966
f 967 968 969
f 970 971 972
f 973 974 975
f 976 977 978
f 979 980 981
f 982 983 984
f 985 986 987
f 988 989 990
f 991 992 993
f 994 995 996
f 997 998 999
f 1000 1001 1002
f 1003 1004 1005
f 1006 1007 1008
f 1009 1010 1011
f 1012 1013 1014
f 1015 1016 1017
f 1018 1019 1020
f 1021 1022 1023
f 1024 1025 1026
f 1027 1028 1029
f 1030 1031 1032
f 1033 1034 1035
f 1036 1037 1038
f 1039 1040 1041
f 1042 1043 1044
f 1045 1046 1047
f 1048 1049 1050
f 1051 1052 1053
f 1054 1055 1056
f 1057 1058 1059
f 1060 1061 1062
f 1063 1064 1065
f 1066 1067 1068
f 1069 1070 1071
f 1072 1073 1074
f 1075 1076 1077
f 1078 1079 1080
f 1081 1082 1083
f 1084 1085 1086
f 1087 1088 1089
f 1090 1091 1092
f 1093 1094 1095
f 1096 1097 1098
f 1099 1100 1101
f 1102 1103 1104
f 1105 1106 1107
f 1108 1109 1110
f 1111 1112 1113
f 1114 1115 1116
f 1117 1118 1119
f 1120 1121 1122
f 1123 1124 1125
f 1126 1127 1128
f 1129 1130 1131
f 1132 1133 1134
f 1135 1136 1137
f 1138 1139 1140
f 1141 1142 1143
f 1144 1145 1146
f 1147 1148 1149
f 1150 1151 1152
f 1153 1154 1155
f 1156 1157 1158
f 1159 1160 1161
f 1162 1163 1164
f 1165 1166 1167
f 1168 1169 1170
f 1171 1172 1173
f 1174 1175 1176
f 1177 1178 1179
f 1180 1181 1182
f 1183 1184 1185
f 1186 1187 1188
f 1189 1190 1191
f 1192 1193 1194
f 1195 1196 1197
f 1198 1199 1200
f 1201 1202 1203
f 1204 1205 1206
f 1207 1208 1209
f 1210 1211 1212
f 1213 1214 1215
f 1216 1217 1218
f 1219 1220 1221
f 1222 1223 1224
f 1225 1226 1227
f 1228 1229 1230
f 1231 1232 1233
f 1234 1235 1236
f 1237 1238 1239
f 1240 1241 1242
f 1243 1244 1245
f 1246 1247 1248
f 1249 1250 1251
f 1252 1253 1254
f 1255 1256 1257
f 1258 1259 1260
f 1261 1262 1263
f 1264 1265 1266
f 1267 1268 1269
f 1270 1271 1272
f 1273 1274 1275
f 1276 1277 1278
f 1279 1280 1281
f 1282 1283 1284
f 1285 1286 1287
f 1288 1289 1290
f 1291 1292 1293
f 1294 1295 1296
f 1297 1298 1299
f 1300 1301 1302
