mtllib wrist_3_link_collisions_wrist3_mesh.mtl
v 0.015527714975178245 0.09214673936367034 -0.026545872911810875
v -0.008822944015264513 0.0921448916196823 -0.014556675218045712
v -0.004538981243968011 0.092155784368515 0.01634775474667549
v -0.020843530073761943 0.05044660717248916 0.024088675156235695
v -0.02840975299477578 0.050447680056095116 0.013827262446284294
v -0.031719949096441276 0.05044764280319213 0.0020020902156829834
v -0.020843530073761943 0.05044660717248916 0.024088675156235695
v -0.01148577965795994 0.05044788867235183 0.02931908704340458
v -0.003416059538722039 0.06215293332934379 0.03759598731994629
v -0.016541847959160808 0.09214651584625243 0.0034140523057430983
v -0.004538981243968011 0.092155784368515 0.01634775474667549
v -0.008822944015264513 0.0921448916196823 -0.014556675218045712
v -0.02890214882791043 0.09213815629482268 0.01062551699578762
v -0.016541847959160808 0.09214651584625243 0.0034140523057430983
v -0.008822944015264513 0.0921448916196823 -0.014556675218045712
v -0.020712465047836307 0.09205873310565947 -0.02195591852068901
v -0.02890214882791043 0.09213815629482268 0.01062551699578762
v -0.008822944015264513 0.0921448916196823 -0.014556675218045712
v -0.020712465047836307 0.09205873310565947 -0.02195591852068901
v 0.015527714975178245 0.09214673936367034 -0.026545872911810875
v 0.0016592204337939624 0.09205234050750731 -0.031256191432476044
v -0.020712465047836307 0.09205873310565947 -0.02195591852068901
v -0.008822944015264513 0.0921448916196823 -0.014556675218045712
v 0.015527714975178245 0.09214673936367034 -0.026545872911810875
v 0.030219959095120437 0.08311364799737929 0.008194521069526672
v 0.03117379918694497 0.09171780198812483 0.003878962714225054
v 0.027800668030977256 0.09188999980688094 0.014319926500320435
v 0.03072179295122624 0.09193356335163115 -0.005829004105180502
v 0.027823558077216155 0.09181641042232512 -0.014378871768712997
v 0.021695043891668323 0.09212039411067961 -0.02101229876279831
v 0.03072179295122624 0.09193356335163115 -0.005829004105180502
v 0.030602186918258674 0.08313899487257002 -0.007185168098658323
v 0.027823558077216155 0.09181641042232512 -0.014378871768712997
v 0.03072179295122624 0.09193356335163115 -0.005829004105180502
v 0.027800668030977256 0.09188999980688094 0.014319926500320435
v 0.03117379918694497 0.09171780198812483 0.003878962714225054
v 0.03072179295122624 0.09193356335163115 -0.005829004105180502
v 0.03145324811339379 0.05044773593544959 -0.004147727508097887
v 0.030602186918258674 0.08313899487257002 -0.007185168098658323
v 0.03072179295122624 0.09193356335163115 -0.005829004105180502
v 0.020940341055393222 0.09207309037446974 0.021846452727913857
v 0.027800668030977256 0.09188999980688094 0.014319926500320435
v 0.03072179295122624 0.09193356335163115 -0.005829004105180502
v 0.021695043891668323 0.09212039411067961 -0.02101229876279831
v 0.020940341055393222 0.09207309037446974 0.021846452727913857
v 0.02801394276320935 0.050447709858417504 0.01460812147706747
v 0.02561080642044545 0.08264939486980437 0.01835363358259201
v 0.02299703471362591 0.050447706133127206 0.0215300302952528
v 0.02561080642044545 0.08264939486980437 0.01835363358259201
v 0.02801394276320935 0.050447709858417504 0.01460812147706747
v 0.027800668030977256 0.09188999980688094 0.014319926500320435
v 0.030219959095120437 0.08311364799737929 0.008194521069526672
v 0.030897138640284545 0.0504477135837078 0.006290134973824024
v 0.03117379918694497 0.09171780198812483 0.003878962714225054
v 0.02801394276320935 0.050447709858417504 0.01460812147706747
v 0.030897138640284545 0.0504477135837078 0.006290134973824024
v 0.030219959095120437 0.08311364799737929 0.008194521069526672
v -0.01148577965795994 0.05044788867235183 0.02931908704340458
v -0.020843530073761943 0.05044660717248916 0.024088675156235695
v -0.004373212810605765 0.0504477210342884 0.03119746409356594
v -0.016541847959160808 0.09214651584625243 0.0034140523057430983
v -0.01844315975904465 0.09214738011360167 0.02433593198657036
v -0.004538981243968011 0.092155784368515 0.01634775474667549
v -0.01844315975904465 0.09214738011360167 0.02433593198657036
v -0.016541847959160808 0.09214651584625243 0.0034140523057430983
v -0.02890214882791043 0.09213815629482268 0.01062551699578762
v -0.01844315975904465 0.09214738011360167 0.02433593198657036
v -0.02890214882791043 0.09213815629482268 0.01062551699578762
v -0.021211653947830204 0.09211900830268858 0.021555466577410698
v -0.004538981243968011 0.092155784368515 0.01634775474667549
v -0.01844315975904465 0.09214738011360167 0.02433593198657036
v 0.008742078207433225 0.0921521633863449 0.029720082879066467
v 0.008742078207433225 0.0921521633863449 0.029720082879066467
v -0.01844315975904465 0.09214738011360167 0.02433593198657036
v -0.008304177783429624 0.09213415533304213 0.029544571414589882
v -0.03163320571184159 0.09105064719915389 0.002626447705551982
v -0.03116727992892266 0.08312585204839705 -0.0031521650962531567
v -0.031719949096441276 0.05044764280319213 0.0020020902156829834
v -0.03050112910568715 0.05044767633080482 -0.008100519888103008
v -0.020843530073761943 0.05044660717248916 0.024088675156235695
v -0.031719949096441276 0.05044764280319213 0.0020020902156829834
v -0.03116727992892266 0.08312585204839705 -0.0031521650962531567
v -0.03050112910568715 0.05044767633080482 -0.008100519888103008
v -0.031719949096441276 0.05044764280319213 0.0020020902156829834
v -0.027875317260622985 0.08317116647958754 -0.014275976456701756
v -0.027397936210036285 0.09193005412817 -0.015125321224331856
v -0.027163878083229072 0.050447680056095116 -0.016247397288680077
v -0.027875317260622985 0.08317116647958754 -0.014275976456701756
v -0.030159311369061477 0.08314829319715498 -0.00858473964035511
v -0.027397936210036285 0.09193005412817 -0.015125321224331856
v -0.027875317260622985 0.08317116647958754 -0.014275976456701756
v -0.027163878083229072 0.050447680056095116 -0.016247397288680077
v -0.03050112910568715 0.05044767633080482 -0.008100519888103008
v -0.027875317260622985 0.08317116647958754 -0.014275976456701756
v -0.03050112910568715 0.05044767633080482 -0.008100519888103008
v -0.030159311369061477 0.08314829319715498 -0.00858473964035511
v -0.029995519667863853 0.08264910429716109 0.009700262919068336
v -0.03163320571184159 0.09105064719915389 0.002626447705551982
v -0.031719949096441276 0.05044764280319213 0.0020020902156829834
v -0.029995519667863853 0.08264910429716109 0.009700262919068336
v -0.029754964634776122 0.08363226056098937 0.010400659404695034
v -0.03163320571184159 0.09105064719915389 0.002626447705551982
v -0.029995519667863853 0.08264910429716109 0.009700262919068336
v -0.031719949096441276 0.05044764280319213 0.0020020902156829834
v -0.02840975299477578 0.050447680056095116 0.013827262446284294
v -0.029995519667863853 0.08264910429716109 0.009700262919068336
v -0.02840975299477578 0.050447680056095116 0.013827262446284294
v -0.029754964634776122 0.08363226056098937 0.010400659404695034
v -0.02755276300013066 0.09123700112104415 0.015594393946230412
v -0.029754964634776122 0.08363226056098937 0.010400659404695034
v -0.02840975299477578 0.050447680056095116 0.013827262446284294
v -0.02840975299477578 0.050447680056095116 0.013827262446284294
v -0.020843530073761943 0.05044660717248916 0.024088675156235695
v -0.02755276300013066 0.09123700112104415 0.015594393946230412
v -0.02890214882791043 0.09213815629482268 0.01062551699578762
v -0.02755276300013066 0.09123700112104415 0.015594393946230412
v -0.021211653947830204 0.09211900830268858 0.021555466577410698
v -0.02755276300013066 0.09123700112104415 0.015594393946230412
v -0.02890214882791043 0.09213815629482268 0.01062551699578762
v -0.03163320571184159 0.09105064719915389 0.002626447705551982
v -0.03163320571184159 0.09105064719915389 0.002626447705551982
v -0.029754964634776122 0.08363226056098937 0.010400659404695034
v -0.02755276300013066 0.09123700112104415 0.015594393946230412
v -3.3696787227199826e-07 0.08364727348089217 -0.03155854716897011
v -0.004396109841763974 0.08365152776241301 -0.03130611777305603
v 0.0016592204337939624 0.09205234050750731 -0.031256191432476044
v -0.001304841134697199 0.05044769495725631 -0.031653646379709244
v -0.004396109841763974 0.08365152776241301 -0.03130611777305603
v -3.3696787227199826e-07 0.08364727348089217 -0.03155854716897011
v -0.030598672106862075 0.09199291467666625 -0.006371953524649143
v -0.020712465047836307 0.09205873310565947 -0.02195591852068901
v -0.027397936210036285 0.09193005412817 -0.015125321224331856
v -0.020712465047836307 0.09205873310565947 -0.02195591852068901
v -0.030598672106862075 0.09199291467666625 -0.006371953524649143
v -0.02890214882791043 0.09213815629482268 0.01062551699578762
v -0.03163320571184159 0.09105064719915389 0.002626447705551982
v -0.02890214882791043 0.09213815629482268 0.01062551699578762
v -0.030598672106862075 0.09199291467666625 -0.006371953524649143
v -0.027397936210036285 0.09193005412817 -0.015125321224331856
v -0.030159311369061477 0.08314829319715498 -0.00858473964035511
v -0.030598672106862075 0.09199291467666625 -0.006371953524649143
v -0.030598672106862075 0.09199291467666625 -0.006371953524649143
v -0.03116727992892266 0.08312585204839705 -0.0031521650962531567
v -0.03163320571184159 0.09105064719915389 0.002626447705551982
v -0.030159311369061477 0.08314829319715498 -0.00858473964035511
v -0.03050112910568715 0.05044767633080482 -0.008100519888103008
v -0.030598672106862075 0.09199291467666625 -0.006371953524649143
v -0.030598672106862075 0.09199291467666625 -0.006371953524649143
v -0.03050112910568715 0.05044767633080482 -0.008100519888103008
v -0.03116727992892266 0.08312585204839705 -0.0031521650962531567
v -0.006929514929652216 0.09193988144397734 -0.030441585928201675
v 0.0016592204337939624 0.09205234050750731 -0.031256191432476044
v -0.004396109841763974 0.08365152776241301 -0.03130611777305603
v -0.006929514929652216 0.09193988144397734 -0.030441585928201675
v -0.020712465047836307 0.09205873310565947 -0.02195591852068901
v 0.0016592204337939624 0.09205234050750731 -0.031256191432476044
v -0.027397936210036285 0.09193005412817 -0.015125321224331856
v -0.020712465047836307 0.09205873310565947 -0.02195591852068901
v -0.0211129654198885 0.09115314483642577 -0.02365521900355816
v 0.03072179295122624 0.09193356335163115 -0.005829004105180502
v 0.03140788525342942 0.08315511792898177 0.0008680273313075304
v 0.03145324811339379 0.05044773593544959 -0.004147727508097887
v 0.03140788525342942 0.08315511792898177 0.0008680273313075304
v 0.03072179295122624 0.09193356335163115 -0.005829004105180502
v 0.03117379918694497 0.09171780198812483 0.003878962714225054
v 0.03140788525342942 0.08315511792898177 0.0008680273313075304
v 0.030897138640284545 0.0504477135837078 0.006290134973824024
v 0.03145324811339379 0.05044773593544959 -0.004147727508097887
v 0.03117379918694497 0.09171780198812483 0.003878962714225054
v 0.030897138640284545 0.0504477135837078 0.006290134973824024
v 0.03140788525342942 0.08315511792898177 0.0008680273313075304
v 0.010242844931781294 0.09116115421056746 -0.02989693358540535
v 0.0016592204337939624 0.09205234050750731 -0.031256191432476044
v 0.015527714975178245 0.09214673936367034 -0.026545872911810875
v -0.012942687608301643 0.05044744536280631 -0.028994522988796234
v -0.001304841134697199 0.05044769495725631 -0.031653646379709244
v 0.009024390019476415 0.05044770240783691 -0.030365370213985443
v -0.012942687608301643 0.05044744536280631 -0.028994522988796234
v -0.004396109841763974 0.08365152776241301 -0.03130611777305603
v -0.001304841134697199 0.05044769495725631 -0.031653646379709244
v 0.018306177109479908 0.09120216965675353 -0.025823894888162613
v 0.015527714975178245 0.09214673936367034 -0.026545872911810875
v 0.021695043891668323 0.09212039411067961 -0.02101229876279831
v 0.018306177109479908 0.09120216965675353 -0.025823894888162613
v 0.010242844931781294 0.09116115421056746 -0.02989693358540535
v 0.015527714975178245 0.09214673936367034 -0.026545872911810875
v 0.0110000791028142 0.05044491216540336 0.029011022299528122
v 0.02299703471362591 0.050447706133127206 0.0215300302952528
v 0.0177207924425602 0.050447631627321236 0.026038698852062225
v 0.0110000791028142 0.05044491216540336 0.029011022299528122
v 0.02801394276320935 0.050447709858417504 0.01460812147706747
v 0.02299703471362591 0.050447706133127206 0.0215300302952528
v 0.0110000791028142 0.05044491216540336 0.029011022299528122
v 0.030897138640284545 0.0504477135837078 0.006290134973824024
v 0.02801394276320935 0.050447709858417504 0.01460812147706747
v 0.0110000791028142 0.05044491216540336 0.029011022299528122
v -0.004373212810605765 0.0504477210342884 0.03119746409356594
v -0.020843530073761943 0.05044660717248916 0.024088675156235695
v 0.0110000791028142 0.05044491216540336 0.029011022299528122
v 0.0012653195299208166 0.05800474807620048 0.03632473573088646
v 0.004154039081186057 0.050447613000869744 0.031217968091368675
v 0.03145324811339379 0.05044773593544959 -0.004147727508097887
v 0.030897138640284545 0.0504477135837078 0.006290134973824024
v 0.0110000791028142 0.05044491216540336 0.029011022299528122
v 0.0110000791028142 0.05044491216540336 0.029011022299528122
v -0.027163878083229072 0.050447680056095116 -0.016247397288680077
v -0.012942687608301643 0.05044744536280631 -0.028994522988796234
v 0.0110000791028142 0.05044491216540336 0.029011022299528122
v -0.012942687608301643 0.05044744536280631 -0.028994522988796234
v 0.009024390019476415 0.05044770240783691 -0.030365370213985443
v -0.020843530073761943 0.05044660717248916 0.024088675156235695
v -0.03050112910568715 0.05044767633080482 -0.008100519888103008
v 0.0110000791028142 0.05044491216540336 0.029011022299528122
v 0.0110000791028142 0.05044491216540336 0.029011022299528122
v -0.03050112910568715 0.05044767633080482 -0.008100519888103008
v -0.027163878083229072 0.050447680056095116 -0.016247397288680077
v 0.028145877644419677 0.08316464722156523 0.013776034116744995
v 0.030219959095120437 0.08311364799737929 0.008194521069526672
v 0.027800668030977256 0.09188999980688094 0.014319926500320435
v 0.02801394276320935 0.050447709858417504 0.01460812147706747
v 0.028145877644419677 0.08316464722156523 0.013776034116744995
v 0.027800668030977256 0.09188999980688094 0.014319926500320435
v 0.028145877644419677 0.08316464722156523 0.013776034116744995
v 0.02801394276320935 0.050447709858417504 0.01460812147706747
v 0.030219959095120437 0.08311364799737929 0.008194521069526672
v -0.0015182832721620802 0.059285406023263924 0.03742189332842827
v 0.004154039081186057 0.050447613000869744 0.031217968091368675
v 0.0012653195299208166 0.05800474807620048 0.03632473573088646
v -0.01148577965795994 0.05044788867235183 0.02931908704340458
v -0.0015182832721620802 0.059285406023263924 0.03742189332842827
v -0.003416059538722039 0.06215293332934379 0.03759598731994629
v -0.004373212810605765 0.0504477210342884 0.03119746409356594
v -0.0015182832721620802 0.059285406023263924 0.03742189332842827
v -0.01148577965795994 0.05044788867235183 0.02931908704340458
v -0.018173385411500934 0.0911428779363632 0.02598661184310913
v -0.008304177783429624 0.09213415533304213 0.029544571414589882
v -0.01844315975904465 0.09214738011360167 0.02433593198657036
v -0.018173385411500934 0.0911428779363632 0.02598661184310913
v -0.020843530073761943 0.05044660717248916 0.024088675156235695
v -0.003416059538722039 0.06215293332934379 0.03759598731994629
v -0.018173385411500934 0.0911428779363632 0.02598661184310913
v -0.01844315975904465 0.09214738011360167 0.02433593198657036
v -0.021211653947830204 0.09211900830268858 0.021555466577410698
v -0.021211653947830204 0.09211900830268858 0.021555466577410698
v -0.02755276300013066 0.09123700112104415 0.015594393946230412
v -0.018173385411500934 0.0911428779363632 0.02598661184310913
v 0.016768999397754673 0.09214795380830763 0.00251220166683197
v 0.020940341055393222 0.09207309037446974 0.021846452727913857
v 0.021695043891668323 0.09212039411067961 -0.02101229876279831
v 0.016768999397754673 0.09214795380830763 0.00251220166683197
v 0.008742078207433225 0.0921521633863449 0.029720082879066467
v 0.020940341055393222 0.09207309037446974 0.021846452727913857
v 0.021695043891668323 0.09212039411067961 -0.02101229876279831
v 0.015527714975178245 0.09214673936367034 -0.026545872911810875
v 0.016768999397754673 0.09214795380830763 0.00251220166683197
v 0.00339794415049255 0.061413694173097604 0.03741977736353874
v 0.0110000791028142 0.05044491216540336 0.029011022299528122
v 0.0177207924425602 0.050447631627321236 0.026038698852062225
v 0.0110000791028142 0.05044491216540336 0.029011022299528122
v 0.00339794415049255 0.061413694173097604 0.03741977736353874
v 0.0012653195299208166 0.05800474807620048 0.03632473573088646
v 0.00339794415049255 0.061413694173097604 0.03741977736353874
v -0.0015182832721620802 0.059285406023263924 0.03742189332842827
v 0.0012653195299208166 0.05800474807620048 0.03632473573088646
v 0.00339794415049255 0.061413694173097604 0.03741977736353874
v -0.003416059538722039 0.06215293332934379 0.03759598731994629
v -0.0015182832721620802 0.059285406023263924 0.03742189332842827
v 0.020893789827823642 0.0911119058728218 0.023879891261458397
v 0.027800668030977256 0.09188999980688094 0.014319926500320435
v 0.020940341055393222 0.09207309037446974 0.021846452727913857
v 0.020893789827823642 0.0911119058728218 0.023879891261458397
v 0.02561080642044545 0.08264939486980437 0.01835363358259201
v 0.027800668030977256 0.09188999980688094 0.014319926500320435
v 0.020893789827823642 0.0911119058728218 0.023879891261458397
v 0.020940341055393222 0.09207309037446974 0.021846452727913857
v 0.008742078207433225 0.0921521633863449 0.029720082879066467
v 0.0177207924425602 0.050447631627321236 0.026038698852062225
v 0.02299703471362591 0.050447706133127206 0.0215300302952528
v 0.020893789827823642 0.0911119058728218 0.023879891261458397
v 0.020893789827823642 0.0911119058728218 0.023879891261458397
v 0.00339794415049255 0.061413694173097604 0.03741977736353874
v 0.0177207924425602 0.050447631627321236 0.026038698852062225
v -0.023851212114095695 0.08310843259096144 -0.0204575564712286
v -0.027163878083229072 0.050447680056095116 -0.016247397288680077
v -0.027397936210036285 0.09193005412817 -0.015125321224331856
v -0.027397936210036285 0.09193005412817 -0.015125321224331856
v -0.0211129654198885 0.09115314483642577 -0.02365521900355816
v -0.023851212114095695 0.08310843259096144 -0.0204575564712286
v 0.010242844931781294 0.09116115421056746 -0.02989693358540535
v 0.00390972848981619 0.08364641666412352 -0.03135617822408676
v 0.0016592204337939624 0.09205234050750731 -0.031256191432476044
v 0.00390972848981619 0.08364641666412352 -0.03135617822408676
v 0.010242844931781294 0.09116115421056746 -0.02989693358540535
v 0.009024390019476415 0.05044770240783691 -0.030365370213985443
v 0.00390972848981619 0.08364641666412352 -0.03135617822408676
v -3.3696787227199826e-07 0.08364727348089217 -0.03155854716897011
v 0.0016592204337939624 0.09205234050750731 -0.031256191432476044
v 0.00390972848981619 0.08364641666412352 -0.03135617822408676
v 0.009024390019476415 0.05044770240783691 -0.030365370213985443
v -0.001304841134697199 0.05044769495725631 -0.031653646379709244
v -0.001304841134697199 0.05044769495725631 -0.031653646379709244
v -3.3696787227199826e-07 0.08364727348089217 -0.03155854716897011
v 0.00390972848981619 0.08364641666412352 -0.03135617822408676
v -0.021773006767034534 0.050447683781385415 -0.02288253791630268
v -0.012942687608301643 0.05044744536280631 -0.028994522988796234
v -0.027163878083229072 0.050447680056095116 -0.016247397288680077
v -0.021773006767034534 0.050447683781385415 -0.02288253791630268
v -0.0211129654198885 0.09115314483642577 -0.02365521900355816
v -0.012942687608301643 0.05044744536280631 -0.028994522988796234
v -0.027163878083229072 0.050447680056095116 -0.016247397288680077
v -0.023851212114095695 0.08310843259096144 -0.0204575564712286
v -0.021773006767034534 0.050447683781385415 -0.02288253791630268
v -0.021773006767034534 0.050447683781385415 -0.02288253791630268
v -0.023851212114095695 0.08310843259096144 -0.0204575564712286
v -0.0211129654198885 0.09115314483642577 -0.02365521900355816
v -0.020712465047836307 0.09205873310565947 -0.02195591852068901
v -0.006929514929652216 0.09193988144397734 -0.030441585928201675
v -0.013413134962320331 0.09177797287702559 -0.028322402387857437
v -0.013413134962320331 0.09177797287702559 -0.028322402387857437
v -0.0211129654198885 0.09115314483642577 -0.02365521900355816
v -0.020712465047836307 0.09205873310565947 -0.02195591852068901
v 0.027823558077216155 0.09181641042232512 -0.014378871768712997
v 0.030602186918258674 0.08313899487257002 -0.007185168098658323
v 0.028281897306442268 0.050447709858417504 -0.014026086777448654
v 0.028281897306442268 0.050447709858417504 -0.014026086777448654
v 0.0110000791028142 0.05044491216540336 0.029011022299528122
v 0.024543227627873428 0.050447709858417504 -0.01987256109714508
v 0.028281897306442268 0.050447709858417504 -0.014026086777448654
v 0.030602186918258674 0.08313899487257002 -0.007185168098658323
v 0.03145324811339379 0.05044773593544959 -0.004147727508097887
v 0.03145324811339379 0.05044773593544959 -0.004147727508097887
v 0.0110000791028142 0.05044491216540336 0.029011022299528122
v 0.028281897306442268 0.050447709858417504 -0.014026086777448654
v 0.024423196911811836 0.09113197028636931 -0.02002720721065998
v 0.024543227627873428 0.050447709858417504 -0.01987256109714508
v 0.022021148353815082 0.08312130719423293 -0.022428786382079124
v 0.018306177109479908 0.09120216965675353 -0.025823894888162613
v 0.024423196911811836 0.09113197028636931 -0.02002720721065998
v 0.022021148353815082 0.08312130719423293 -0.022428786382079124
v 0.024423196911811836 0.09113197028636931 -0.02002720721065998
v 0.028281897306442268 0.050447709858417504 -0.014026086777448654
v 0.024543227627873428 0.050447709858417504 -0.01987256109714508
v 0.024423196911811836 0.09113197028636931 -0.02002720721065998
v 0.021695043891668323 0.09212039411067961 -0.02101229876279831
v 0.027823558077216155 0.09181641042232512 -0.014378871768712997
v 0.024423196911811836 0.09113197028636931 -0.02002720721065998
v 0.018306177109479908 0.09120216965675353 -0.025823894888162613
v 0.021695043891668323 0.09212039411067961 -0.02101229876279831
v 0.018306177109479908 0.09120216965675353 -0.025823894888162613
v 0.015349422581493858 0.08315156400203703 -0.027348902076482773
v 0.010242844931781294 0.09116115421056746 -0.02989693358540535
v -3.3876239058372453e-07 0.05044769495725631 0.031440574675798416
v 0.0110000791028142 0.05044491216540336 0.029011022299528122
v 0.004154039081186057 0.050447613000869744 0.031217968091368675
v 0.0110000791028142 0.05044491216540336 0.029011022299528122
v -3.3876239058372453e-07 0.05044769495725631 0.031440574675798416
v -0.004373212810605765 0.0504477210342884 0.03119746409356594
v 0.004154039081186057 0.050447613000869744 0.031217968091368675
v -0.0015182832721620802 0.059285406023263924 0.03742189332842827
v -3.3876239058372453e-07 0.05044769495725631 0.031440574675798416
v -3.3876239058372453e-07 0.05044769495725631 0.031440574675798416
v -0.0015182832721620802 0.059285406023263924 0.03742189332842827
v -0.004373212810605765 0.0504477210342884 0.03119746409356594
v -0.02538199163973332 0.08315258473157881 0.018411744385957718
v -0.02755276300013066 0.09123700112104415 0.015594393946230412
v -0.020843530073761943 0.05044660717248916 0.024088675156235695
v -0.020843530073761943 0.05044660717248916 0.024088675156235695
v -0.018173385411500934 0.0911428779363632 0.02598661184310913
v -0.02538199163973332 0.08315258473157881 0.018411744385957718
v -0.02538199163973332 0.08315258473157881 0.018411744385957718
v -0.018173385411500934 0.0911428779363632 0.02598661184310913
v -0.02755276300013066 0.09123700112104415 0.015594393946230412
v 0.015175304375588897 0.09215017408132552 -0.007748775649815798
v 0.016768999397754673 0.09214795380830763 0.00251220166683197
v 0.015527714975178245 0.09214673936367034 -0.026545872911810875
v 0.008742078207433225 0.0921521633863449 0.029720082879066467
v 0.016768999397754673 0.09214795380830763 0.00251220166683197
v 0.015175304375588897 0.09215017408132552 -0.007748775649815798
v 0.015175304375588897 0.09215017408132552 -0.007748775649815798
v 0.015527714975178245 0.09214673936367034 -0.026545872911810875
v -0.004538981243968011 0.092155784368515 0.01634775474667549
v -0.004538981243968011 0.092155784368515 0.01634775474667549
v 0.008742078207433225 0.0921521633863449 0.029720082879066467
v 0.015175304375588897 0.09215017408132552 -0.007748775649815798
v -0.005160692147910596 0.09117215126752852 0.03123762644827366
v 0.008742078207433225 0.0921521633863449 0.029720082879066467
v -0.008304177783429624 0.09213415533304213 0.029544571414589882
v -0.018173385411500934 0.0911428779363632 0.02598661184310913
v -0.005160692147910596 0.09117215126752852 0.03123762644827366
v -0.008304177783429624 0.09213415533304213 0.029544571414589882
v -0.005160692147910596 0.09117215126752852 0.03123762644827366
v -0.018173385411500934 0.0911428779363632 0.02598661184310913
v -0.003416059538722039 0.06215293332934379 0.03759598731994629
v -0.003416059538722039 0.06215293332934379 0.03759598731994629
v -0.0020349749829620127 0.06555479019880293 0.037436842918395996
v -0.005160692147910596 0.09117215126752852 0.03123762644827366
v 0.001988485455513001 0.06545395404100417 0.037541575729846954
v -0.005160692147910596 0.09117215126752852 0.03123762644827366
v -0.0020349749829620127 0.06555479019880293 0.037436842918395996
v 0.001988485455513001 0.06545395404100417 0.037541575729846954
v -0.0020349749829620127 0.06555479019880293 0.037436842918395996
v -0.003416059538722039 0.06215293332934379 0.03759598731994629
v 0.00339794415049255 0.061413694173097604 0.03741977736353874
v 0.001988485455513001 0.06545395404100417 0.037541575729846954
v -0.003416059538722039 0.06215293332934379 0.03759598731994629
v 0.02299703471362591 0.050447706133127206 0.0215300302952528
v 0.02561080642044545 0.08264939486980437 0.01835363358259201
v 0.023484325036406524 0.08369397372007369 0.021141350269317627
v 0.023484325036406524 0.08369397372007369 0.021141350269317627
v 0.020893789827823642 0.0911119058728218 0.023879891261458397
v 0.02299703471362591 0.050447706133127206 0.0215300302952528
v 0.020893789827823642 0.0911119058728218 0.023879891261458397
v 0.023484325036406524 0.08369397372007369 0.021141350269317627
v 0.02561080642044545 0.08264939486980437 0.01835363358259201
v -0.011341398581862451 0.08313430845737456 -0.029267216101288795
v -0.013413134962320331 0.09177797287702559 -0.028322402387857437
v -0.006929514929652216 0.09193988144397734 -0.030441585928201675
v -0.012942687608301643 0.05044744536280631 -0.028994522988796234
v -0.013413134962320331 0.09177797287702559 -0.028322402387857437
v -0.011341398581862451 0.08313430845737456 -0.029267216101288795
v -0.011341398581862451 0.08313430845737456 -0.029267216101288795
v -0.006929514929652216 0.09193988144397734 -0.030441585928201675
v -0.004396109841763974 0.08365152776241301 -0.03130611777305603
v -0.004396109841763974 0.08365152776241301 -0.03130611777305603
v -0.012942687608301643 0.05044744536280631 -0.028994522988796234
v -0.011341398581862451 0.08313430845737456 -0.029267216101288795
v -0.018419003114104274 0.08318179100751875 -0.02545691840350628
v -0.012942687608301643 0.05044744536280631 -0.028994522988796234
v -0.0211129654198885 0.09115314483642577 -0.02365521900355816
v -0.013413134962320331 0.09177797287702559 -0.028322402387857437
v -0.018419003114104274 0.08318179100751875 -0.02545691840350628
v -0.0211129654198885 0.09115314483642577 -0.02365521900355816
v -0.018419003114104274 0.08318179100751875 -0.02545691840350628
v -0.013413134962320331 0.09177797287702559 -0.028322402387857437
v -0.012942687608301643 0.05044744536280631 -0.028994522988796234
v 0.027823558077216155 0.09181641042232512 -0.014378871768712997
v 0.028281897306442268 0.050447709858417504 -0.014026086777448654
v 0.027216881513595588 0.08316916972398757 -0.015658382326364517
v 0.027216881513595588 0.08316916972398757 -0.015658382326364517
v 0.024423196911811836 0.09113197028636931 -0.02002720721065998
v 0.027823558077216155 0.09181641042232512 -0.014378871768712997
v 0.024423196911811836 0.09113197028636931 -0.02002720721065998
v 0.027216881513595588 0.08316916972398757 -0.015658382326364517
v 0.028281897306442268 0.050447709858417504 -0.014026086777448654
v 0.018375981599092487 0.050447706133127206 -0.025792887434363365
v 0.024543227627873428 0.050447709858417504 -0.01987256109714508
v 0.0110000791028142 0.05044491216540336 0.029011022299528122
v 0.018375981599092487 0.050447706133127206 -0.025792887434363365
v 0.022021148353815082 0.08312130719423293 -0.022428786382079124
v 0.024543227627873428 0.050447709858417504 -0.01987256109714508
v 0.018375981599092487 0.050447706133127206 -0.025792887434363365
v 0.018306177109479908 0.09120216965675353 -0.025823894888162613
v 0.022021148353815082 0.08312130719423293 -0.022428786382079124
v 0.018375981599092487 0.050447706133127206 -0.025792887434363365
v 0.0110000791028142 0.05044491216540336 0.029011022299528122
v 0.009024390019476415 0.05044770240783691 -0.030365370213985443
v 0.018375981599092487 0.050447706133127206 -0.025792887434363365
v 0.015349422581493858 0.08315156400203703 -0.027348902076482773
v 0.018306177109479908 0.09120216965675353 -0.025823894888162613
v 0.010242844931781294 0.09116115421056746 -0.02989693358540535
v 0.018375981599092487 0.050447706133127206 -0.025792887434363365
v 0.009024390019476415 0.05044770240783691 -0.030365370213985443
v 0.015349422581493858 0.08315156400203703 -0.027348902076482773
v 0.018375981599092487 0.050447706133127206 -0.025792887434363365
v 0.010242844931781294 0.09116115421056746 -0.02989693358540535
v 0.00339794415049255 0.061413694173097604 0.03741977736353874
v 0.020893789827823642 0.0911119058728218 0.023879891261458397
v 0.008439008146524431 0.09117593616247176 0.030512232333421707
v 0.008439008146524431 0.09117593616247176 0.030512232333421707
v 0.001988485455513001 0.06545395404100417 0.037541575729846954
v 0.00339794415049255 0.061413694173097604 0.03741977736353874
v 0.008439008146524431 0.09117593616247176 0.030512232333421707
v 0.020893789827823642 0.0911119058728218 0.023879891261458397
v 0.008742078207433225 0.0921521633863449 0.029720082879066467
v -0.005160692147910596 0.09117215126752852 0.03123762644827366
v 0.008439008146524431 0.09117593616247176 0.030512232333421707
v 0.008742078207433225 0.0921521633863449 0.029720082879066467
v 0.008439008146524431 0.09117593616247176 0.030512232333421707
v -0.005160692147910596 0.09117215126752852 0.03123762644827366
v 0.001988485455513001 0.06545395404100417 0.037541575729846954
usemtl DefaultMaterial
f 1 2 3
f 4 5 6
f 7 8 9
f 10 11 12
f 13 14 15
f 16 17 18
f 19 20 21
f 22 23 24
f 25 26 27
f 28 29 30
f 31 32 33
f 34 35 36
f 37 38 39
f 40 41 42
f 43 44 45
f 46 47 48
f 49 50 51
f 52 53 54
f 55 56 57
f 58 59 60
f 61 62 63
f 64 65 66
f 67 68 69
f 70 71 72
f 73 74 75
f 76 77 78
f 79 80 81
f 82 83 84
f 85 86 87
f 88 89 90
f 91 92 93
f 94 95 96
f 97 98 99
f 100 101 102
f 103 104 105
f 106 107 108
f 109 110 111
f 112 113 114
f 115 116 117
f 118 119 120
f 121 122 123
f 124 125 126
f 127 128 129
f 130 131 132
f 133 134 135
f 136 137 138
f 139 140 141
f 142 143 144
f 145 146 147
f 148 149 150
f 151 152 153
f 154 155 156
f 157 158 159
f 160 161 162
f 163 164 165
f 166 167 168
f 169 170 171
f 172 173 174
f 175 176 177
f 178 179 180
f 181 182 183
f 184 185 186
f 187 188 189
f 190 191 192
f 193 194 195
f 196 197 198
f 199 200 201
f 202 203 204
f 205 206 207
f 208 209 210
f 211 212 213
f 214 215 216
f 217 218 219
f 220 221 222
f 223 224 225
f 226 227 228
f 229 230 231
f 232 233 234
f 235 236 237
f 238 239 240
f 241 242 243
f 244 245 246
f 247 248 249
f 250 251 252
f 253 254 255
f 256 257 258
f 259 260 261
f 262 263 264
f 265 266 267
f 268 269 270
f 271 272 273
f 274 275 276
f 277 278 279
f 280 281 282
f 283 284 285
f 286 287 288
f 289 290 291
f 292 293 294
f 295 296 297
f 298 299 300
f 301 302 303
f 304 305 306
f 307 308 309
f 310 311 312
f 313 314 315
f 316 317 318
f 319 320 321
f 322 323 324
f 325 326 327
f 328 329 330
f 331 332 333
f 334 335 336
f 337 338 339
f 340 341 342
f 343 344 345
f 346 347 348
f 349 350 351
f 352 353 354
f 355 356 357
f 358 359 360
f 361 362 363
f 364 365 366
f 367 368 369
f 370 371 372
f 373 374 375
f 376 377 378
f 379 380 381
f 382 383 384
f 385 386 387
f 388 389 390
f 391 392 393
f 394 395 396
f 397 398 399
f 400 401 402
f 403 404 405
f 406 407 408
f 409 410 411
f 412 413 414
f 415 416 417
f 418 419 420
f 421 422 423
f 424 425 426
f 427 428 429
f 430 431 432
f 433 434 435
f 436 437 438
f 439 440 441
f 442 443 444
f 445 446 447
f 448 449 450
f 451 452 453
f 454 455 456
f 457 458 459
f 460 461 462
f 463 464 465
f 466 467 468
f 469 470 471
f 472 473 474
f 475 476 477
f 478 479 480
